<svg width="4900" height="1340" viewBox="0 0 4900 1340" fill="none" xmlns="http://www.w3.org/2000/svg">
<path d="M136.016 1335.18V1204.8H26.7379V1335.18H1.06055V1049.74H26.7379V1180.32H136.016V1049.74H161.693V1335.18H136.016Z" fill="black"/>
<path d="M334.269 1268.7H243.9L225.19 1335.18H198.517L282.118 1049.74H295.653L379.652 1335.18H353.178L334.269 1268.7ZM250.867 1244.22H327.501L289.881 1112.64L289.084 1102.09L288.288 1112.64L250.867 1244.22Z" fill="black"/>
<path d="M563.374 1335.18L444.343 1127.37L441.954 1115.03V1335.18H416.277V1049.74H429.613L548.644 1257.75L551.232 1269.89V1049.74H576.909V1335.18H563.374Z" fill="black"/>
<path d="M803.029 1265.12C803.029 1274.8 801.171 1283.89 797.456 1292.39C793.873 1300.88 788.896 1308.31 782.527 1314.68C776.157 1321.05 768.66 1326.09 760.034 1329.81C751.542 1333.39 742.452 1335.18 732.765 1335.18H642.396V1049.74H732.765C742.452 1049.74 751.542 1051.6 760.034 1055.32C768.66 1058.9 776.157 1063.88 782.527 1070.25C788.896 1076.62 793.873 1084.11 797.456 1092.74C801.171 1101.23 803.029 1110.32 803.029 1120.01V1265.12ZM777.352 1120.01C777.352 1113.64 776.157 1107.73 773.769 1102.29C771.38 1096.72 768.063 1091.88 763.816 1087.76C759.703 1083.52 754.859 1080.2 749.286 1077.81C743.845 1075.42 737.94 1074.23 731.57 1074.23H668.074V1310.7H731.57C737.94 1310.7 743.845 1309.5 749.286 1307.12C754.859 1304.73 759.703 1301.48 763.816 1297.36C768.063 1293.25 771.38 1288.47 773.769 1283.03C776.157 1277.46 777.352 1271.49 777.352 1265.12V1120.01Z" fill="black"/>
<path d="M1039.9 1335.18V1139.52L1038.11 1151.66L971.822 1335.18H958.287L891.407 1151.66L889.814 1139.52V1335.18H864.137V1049.74H877.473L964.06 1283.83L964.856 1294.38L965.652 1283.83L1052.04 1049.74H1065.57V1335.18H1039.9Z" fill="black"/>
<path d="M1237.95 1268.7H1147.58L1128.87 1335.18H1102.2L1185.8 1049.74H1199.34L1283.33 1335.18H1256.86L1237.95 1268.7ZM1154.55 1244.22H1231.18L1193.56 1112.64L1192.77 1102.09L1191.97 1112.64L1154.55 1244.22Z" fill="black"/>
<path d="M1480.59 1265.12C1480.59 1274.8 1478.73 1283.89 1475.02 1292.39C1471.44 1300.88 1466.46 1308.31 1460.09 1314.68C1453.72 1321.05 1446.22 1326.09 1437.6 1329.81C1429.1 1333.39 1420.01 1335.18 1410.33 1335.18H1319.96V1049.74H1410.33C1420.01 1049.74 1429.1 1051.6 1437.6 1055.32C1446.22 1058.9 1453.72 1063.88 1460.09 1070.25C1466.46 1076.62 1471.44 1084.11 1475.02 1092.74C1478.73 1101.23 1480.59 1110.32 1480.59 1120.01V1265.12ZM1454.91 1120.01C1454.91 1113.64 1453.72 1107.73 1451.33 1102.29C1448.94 1096.72 1445.63 1091.88 1441.38 1087.76C1437.27 1083.52 1432.42 1080.2 1426.85 1077.81C1421.41 1075.42 1415.5 1074.23 1409.13 1074.23H1345.64V1310.7H1409.13C1415.5 1310.7 1421.41 1309.5 1426.85 1307.12C1432.42 1304.73 1437.27 1301.48 1441.38 1297.36C1445.63 1293.25 1448.94 1288.47 1451.33 1283.03C1453.72 1277.46 1454.91 1271.49 1454.91 1265.12V1120.01Z" fill="black"/>
<path d="M1541.7 1335.18V1049.74H1702.33V1074.23H1567.38V1180.32H1676.65V1204.8H1567.38V1310.7H1702.33V1335.18H1541.7Z" fill="black"/>
<path d="M2006.08 1265.12C2006.08 1274.8 2004.22 1283.89 2000.51 1292.39C1996.92 1300.88 1991.95 1308.31 1985.58 1314.68C1979.21 1321.05 1971.71 1326.09 1963.09 1329.81C1954.59 1333.39 1945.5 1335.18 1935.82 1335.18H1845.45V1049.74H1935.82C1945.5 1049.74 1954.59 1051.6 1963.09 1055.32C1971.71 1058.9 1979.21 1063.88 1985.58 1070.25C1991.95 1076.62 1996.92 1084.11 2000.51 1092.74C2004.22 1101.23 2006.08 1110.32 2006.08 1120.01V1265.12ZM1980.4 1120.01C1980.4 1113.64 1979.21 1107.73 1976.82 1102.29C1974.43 1096.72 1971.11 1091.88 1966.87 1087.76C1962.75 1083.52 1957.91 1080.2 1952.34 1077.81C1946.9 1075.42 1940.99 1074.23 1934.62 1074.23H1871.13V1310.7H1934.62C1940.99 1310.7 1946.9 1309.5 1952.34 1307.12C1957.91 1304.73 1962.75 1301.48 1966.87 1297.36C1971.11 1293.25 1974.43 1288.47 1976.82 1283.03C1979.21 1277.46 1980.4 1271.49 1980.4 1265.12V1120.01Z" fill="black"/>
<path d="M2067.19 1335.18V1049.74H2227.82V1074.23H2092.87V1180.32H2202.14V1204.8H2092.87V1310.7H2227.82V1335.18H2067.19Z" fill="black"/>
<path d="M2433.44 1269.1C2433.44 1278.78 2431.58 1287.87 2427.87 1296.37C2424.28 1304.86 2419.31 1312.29 2412.94 1318.66C2406.57 1325.03 2399.14 1330.07 2390.64 1333.79C2382.15 1337.37 2373.06 1339.16 2363.37 1339.16H2343.07C2333.38 1339.16 2324.23 1337.37 2315.6 1333.79C2307.11 1330.07 2299.68 1325.03 2293.31 1318.66C2286.94 1312.29 2281.9 1304.86 2278.18 1296.37C2274.6 1287.87 2272.81 1278.78 2272.81 1269.1V1115.83C2272.81 1106.14 2274.6 1097.05 2278.18 1088.56C2281.9 1080.07 2286.94 1072.64 2293.31 1066.27C2299.68 1059.9 2307.11 1054.92 2315.6 1051.34C2324.23 1047.62 2333.38 1045.76 2343.07 1045.76H2363.37C2373.06 1045.76 2382.15 1047.62 2390.64 1051.34C2399.14 1054.92 2406.57 1059.9 2412.94 1066.27C2419.31 1072.64 2424.28 1080.07 2427.87 1088.56C2431.58 1097.05 2433.44 1106.14 2433.44 1115.83V1127.37L2407.76 1131.35V1115.83C2407.76 1109.46 2406.57 1103.55 2404.18 1098.11C2401.79 1092.54 2398.54 1087.7 2394.43 1083.58C2390.31 1079.47 2385.47 1076.22 2379.9 1073.83C2374.45 1071.44 2368.55 1070.25 2362.18 1070.25H2344.27C2337.9 1070.25 2331.92 1071.44 2326.35 1073.83C2320.91 1076.22 2316.07 1079.47 2311.82 1083.58C2307.71 1087.7 2304.46 1092.54 2302.07 1098.11C2299.68 1103.55 2298.48 1109.46 2298.48 1115.83V1269.1C2298.48 1275.47 2299.68 1281.44 2302.07 1287.01C2304.46 1292.45 2307.71 1297.3 2311.82 1301.54C2316.07 1305.66 2320.91 1308.91 2326.35 1311.3C2331.92 1313.68 2337.9 1314.88 2344.27 1314.88H2362.18C2368.55 1314.88 2374.45 1313.68 2379.9 1311.3C2385.47 1308.91 2390.31 1305.66 2394.43 1301.54C2398.54 1297.3 2401.79 1292.45 2404.18 1287.01C2406.57 1281.44 2407.76 1275.47 2407.76 1269.1V1253.57L2433.44 1257.75V1269.1Z" fill="black"/>
<path d="M2647.22 1269.1C2647.22 1278.78 2645.36 1287.87 2641.64 1296.37C2638.06 1304.86 2633.09 1312.29 2626.72 1318.66C2620.35 1325.03 2612.92 1330.07 2604.42 1333.79C2595.93 1337.37 2586.84 1339.16 2577.15 1339.16H2556.85C2547.16 1339.16 2538.01 1337.37 2529.38 1333.79C2520.89 1330.07 2513.46 1325.03 2507.09 1318.66C2500.72 1312.29 2495.68 1304.86 2491.96 1296.37C2488.38 1287.87 2486.59 1278.78 2486.59 1269.1V1115.83C2486.59 1106.14 2488.38 1097.05 2491.96 1088.56C2495.68 1080.07 2500.72 1072.64 2507.09 1066.27C2513.46 1059.9 2520.89 1054.92 2529.38 1051.34C2538.01 1047.62 2547.16 1045.76 2556.85 1045.76H2577.15C2586.84 1045.76 2595.93 1047.62 2604.42 1051.34C2612.92 1054.92 2620.35 1059.9 2626.72 1066.27C2633.09 1072.64 2638.06 1080.07 2641.64 1088.56C2645.36 1097.05 2647.22 1106.14 2647.22 1115.83V1269.1ZM2621.54 1115.83C2621.54 1109.46 2620.35 1103.55 2617.96 1098.11C2615.57 1092.54 2612.32 1087.7 2608.2 1083.58C2604.09 1079.47 2599.25 1076.22 2593.67 1073.83C2588.23 1071.44 2582.33 1070.25 2575.96 1070.25H2558.04C2551.67 1070.25 2545.7 1071.44 2540.13 1073.83C2534.69 1076.22 2529.85 1079.47 2525.6 1083.58C2521.49 1087.7 2518.23 1092.54 2515.85 1098.11C2513.46 1103.55 2512.26 1109.46 2512.26 1115.83V1269.1C2512.26 1275.47 2513.46 1281.44 2515.85 1287.01C2518.23 1292.45 2521.49 1297.3 2525.6 1301.54C2529.85 1305.66 2534.69 1308.91 2540.13 1311.3C2545.7 1313.68 2551.67 1314.88 2558.04 1314.88H2575.96C2582.33 1314.88 2588.23 1313.68 2593.67 1311.3C2599.25 1308.91 2604.09 1305.66 2608.2 1301.54C2612.32 1297.3 2615.57 1292.45 2617.96 1287.01C2620.35 1281.44 2621.54 1275.47 2621.54 1269.1V1115.83Z" fill="black"/>
<path d="M2842.68 1335.18L2765.25 1213.36H2730.02V1335.18H2704.34V1049.74H2794.91C2804.6 1049.74 2813.69 1051.6 2822.18 1055.32C2830.67 1058.9 2838.11 1063.88 2844.48 1070.25C2850.84 1076.62 2855.82 1084.11 2859.4 1092.74C2863.12 1101.23 2864.98 1110.32 2864.98 1120.01V1143.1C2864.98 1152.79 2863.12 1161.94 2859.4 1170.57C2855.82 1179.06 2850.84 1186.49 2844.48 1192.86C2838.11 1199.23 2830.67 1204.27 2822.18 1207.99C2813.69 1211.57 2804.6 1213.36 2794.91 1213.36L2872.34 1335.18H2842.68ZM2839.3 1120.01C2839.3 1113.64 2838.11 1107.73 2835.72 1102.29C2833.33 1096.72 2830.08 1091.88 2825.96 1087.76C2821.85 1083.52 2817.01 1080.2 2811.43 1077.81C2805.99 1075.42 2800.09 1074.23 2793.72 1074.23H2730.02V1188.88H2793.72C2800.09 1188.88 2805.99 1187.69 2811.43 1185.3C2817.01 1182.91 2821.85 1179.66 2825.96 1175.54C2830.08 1171.3 2833.33 1166.45 2835.72 1161.01C2838.11 1155.44 2839.3 1149.47 2839.3 1143.1V1120.01Z" fill="black"/>
<path d="M3028.6 1268.7H2938.23L2919.52 1335.18H2892.84L2976.44 1049.74H2989.98L3073.98 1335.18H3047.51L3028.6 1268.7ZM2945.19 1244.22H3021.83L2984.21 1112.64L2983.41 1102.09L2982.62 1112.64L2945.19 1244.22Z" fill="black"/>
<path d="M3167.53 1074.23V1335.18H3141.85V1074.23H3073.78V1049.74H3235.61V1074.23H3167.53Z" fill="black"/>
<path d="M3276.61 1335.18V1049.74H3302.29V1335.18H3276.61Z" fill="black"/>
<path d="M3524.23 1269.1C3524.23 1278.78 3522.37 1287.87 3518.65 1296.37C3515.07 1304.86 3510.1 1312.29 3503.73 1318.66C3497.36 1325.03 3489.92 1330.07 3481.43 1333.79C3472.94 1337.37 3463.85 1339.16 3454.16 1339.16H3433.86C3424.17 1339.16 3415.02 1337.37 3406.39 1333.79C3397.9 1330.07 3390.47 1325.03 3384.1 1318.66C3377.73 1312.29 3372.69 1304.86 3368.97 1296.37C3365.39 1287.87 3363.6 1278.78 3363.6 1269.1V1115.83C3363.6 1106.14 3365.39 1097.05 3368.97 1088.56C3372.69 1080.07 3377.73 1072.64 3384.1 1066.27C3390.47 1059.9 3397.9 1054.92 3406.39 1051.34C3415.02 1047.62 3424.17 1045.76 3433.86 1045.76H3454.16C3463.85 1045.76 3472.94 1047.62 3481.43 1051.34C3489.92 1054.92 3497.36 1059.9 3503.73 1066.27C3510.1 1072.64 3515.07 1080.07 3518.65 1088.56C3522.37 1097.05 3524.23 1106.14 3524.23 1115.83V1269.1ZM3498.55 1115.83C3498.55 1109.46 3497.36 1103.55 3494.97 1098.11C3492.58 1092.54 3489.33 1087.7 3485.21 1083.58C3481.1 1079.47 3476.26 1076.22 3470.68 1073.83C3465.24 1071.44 3459.34 1070.25 3452.97 1070.25H3435.05C3428.68 1070.25 3422.71 1071.44 3417.14 1073.83C3411.7 1076.22 3406.86 1079.47 3402.61 1083.58C3398.49 1087.7 3395.24 1092.54 3392.86 1098.11C3390.47 1103.55 3389.27 1109.46 3389.27 1115.83V1269.1C3389.27 1275.47 3390.47 1281.44 3392.86 1287.01C3395.24 1292.45 3398.49 1297.3 3402.61 1301.54C3406.86 1305.66 3411.7 1308.91 3417.14 1311.3C3422.71 1313.68 3428.68 1314.88 3435.05 1314.88H3452.97C3459.34 1314.88 3465.24 1313.68 3470.68 1311.3C3476.26 1308.91 3481.1 1305.66 3485.21 1301.54C3489.33 1297.3 3492.58 1292.45 3494.97 1287.01C3497.36 1281.44 3498.55 1275.47 3498.55 1269.1V1115.83Z" fill="black"/>
<path d="M3732.63 1335.18L3613.6 1127.37L3611.21 1115.03V1335.18H3585.53V1049.74H3598.87L3717.9 1257.75L3720.49 1269.89V1049.74H3746.17V1335.18H3732.63Z" fill="black"/>
<path d="M3901.43 1335.18V1049.74H3927.1V1310.7H4036.38V1335.18H3901.43Z" fill="black"/>
<path d="M4184.27 1268.7H4093.91L4075.2 1335.18H4048.52L4132.12 1049.74H4145.66L4229.66 1335.18H4203.18L4184.27 1268.7ZM4100.87 1244.22H4177.51L4139.89 1112.64L4139.09 1102.09L4138.29 1112.64L4100.87 1244.22Z" fill="black"/>
<path d="M4442.04 1335.18V1139.52L4440.25 1151.66L4373.97 1335.18H4360.43L4293.55 1151.66L4291.96 1139.52V1335.18H4266.28V1049.74H4279.62L4366.2 1283.83L4367 1294.38L4367.8 1283.83L4454.18 1049.74H4467.72V1335.18H4442.04Z" fill="black"/>
<path d="M4693.64 1155.44C4693.64 1165.13 4691.78 1174.22 4688.07 1182.71C4684.48 1191.2 4679.51 1198.63 4673.14 1205C4666.77 1211.37 4659.27 1216.42 4650.65 1220.13C4642.15 1223.71 4633.06 1225.5 4623.38 1225.5H4558.69V1335.18H4533.01V1049.74H4623.38C4633.06 1049.74 4642.15 1051.6 4650.65 1055.32C4659.27 1058.9 4666.77 1063.88 4673.14 1070.25C4679.51 1076.62 4684.48 1084.11 4688.07 1092.74C4691.78 1101.23 4693.64 1110.32 4693.64 1120.01V1155.44ZM4667.96 1120.01C4667.96 1113.64 4666.77 1107.73 4664.38 1102.29C4661.99 1096.72 4658.67 1091.88 4654.43 1087.76C4650.31 1083.52 4645.47 1080.2 4639.9 1077.81C4634.46 1075.42 4628.55 1074.23 4622.18 1074.23H4558.69V1201.02H4622.18C4628.55 1201.02 4634.46 1199.83 4639.9 1197.44C4645.47 1195.05 4650.31 1191.8 4654.43 1187.69C4658.67 1183.57 4661.99 1178.79 4664.38 1173.35C4666.77 1167.78 4667.96 1161.81 4667.96 1155.44V1120.01Z" fill="black"/>
<path d="M4899.26 1269.1C4899.26 1278.78 4897.27 1287.87 4893.29 1296.37C4889.44 1304.86 4884.2 1312.29 4877.56 1318.66C4871.06 1325.03 4863.43 1330.07 4854.67 1333.79C4846.05 1337.37 4836.89 1339.16 4827.2 1339.16H4806.7C4797.01 1339.16 4787.79 1337.37 4779.03 1333.79C4770.41 1330.07 4762.78 1325.03 4756.14 1318.66C4749.64 1312.29 4744.4 1304.86 4740.42 1296.37C4736.57 1287.87 4734.64 1278.78 4734.64 1269.1V1257.75L4760.32 1253.57V1269.1C4760.32 1275.47 4761.58 1281.44 4764.1 1287.01C4766.76 1292.45 4770.27 1297.3 4774.65 1301.54C4779.03 1305.66 4784.08 1308.91 4789.78 1311.3C4795.62 1313.68 4801.72 1314.88 4808.09 1314.88H4826.01C4832.38 1314.88 4838.42 1313.68 4844.12 1311.3C4849.83 1308.91 4854.87 1305.66 4859.25 1301.54C4863.63 1297.3 4867.08 1292.45 4869.6 1287.01C4872.25 1281.44 4873.58 1275.47 4873.58 1269.1V1260.54C4873.58 1250.72 4871.66 1242.56 4867.81 1236.05C4863.96 1229.55 4858.85 1224.05 4852.48 1219.53C4846.11 1214.89 4838.88 1210.97 4830.79 1207.79C4822.82 1204.6 4814.6 1201.42 4806.1 1198.24C4797.61 1195.05 4789.32 1191.53 4781.22 1187.69C4773.26 1183.84 4766.09 1179.06 4759.72 1173.35C4753.36 1167.52 4748.25 1160.42 4744.4 1152.06C4740.55 1143.7 4738.63 1133.41 4738.63 1121.2V1115.83C4738.63 1106.14 4740.42 1097.05 4744 1088.56C4747.72 1080.07 4752.76 1072.64 4759.13 1066.27C4765.5 1059.9 4772.93 1054.92 4781.42 1051.34C4790.05 1047.62 4799.2 1045.76 4808.89 1045.76H4827.2C4836.89 1045.76 4845.98 1047.62 4854.47 1051.34C4862.96 1054.92 4870.4 1059.9 4876.77 1066.27C4883.14 1072.64 4888.11 1080.07 4891.69 1088.56C4895.41 1097.05 4897.27 1106.14 4897.27 1115.83V1123.19L4871.59 1127.37V1115.83C4871.59 1109.46 4870.4 1103.55 4868.01 1098.11C4865.62 1092.54 4862.37 1087.7 4858.25 1083.58C4854.14 1079.47 4849.3 1076.22 4843.72 1073.83C4838.28 1071.44 4832.38 1070.25 4826.01 1070.25H4810.08C4803.71 1070.25 4797.74 1071.44 4792.17 1073.83C4786.73 1076.22 4781.89 1079.47 4777.64 1083.58C4773.53 1087.7 4770.27 1092.54 4767.89 1098.11C4765.5 1103.55 4764.3 1109.46 4764.3 1115.83V1121.2C4764.3 1130.36 4766.23 1138.06 4770.08 1144.29C4773.92 1150.53 4779.03 1155.9 4785.4 1160.42C4791.77 1164.8 4798.94 1168.64 4806.9 1171.96C4814.99 1175.15 4823.29 1178.46 4831.78 1181.91C4840.27 1185.23 4848.5 1188.95 4856.46 1193.06C4864.56 1197.04 4871.79 1202.02 4878.16 1207.99C4884.53 1213.83 4889.64 1220.99 4893.49 1229.49C4897.33 1237.98 4899.26 1248.33 4899.26 1260.54V1269.1Z" fill="black"/>
<path d="M0.943359 843.098H4895.71V889.878H0.943359V843.098Z" fill="#D9D9D9"/>
<path d="M307.119 683.645H291.543L263.051 639.957C251.147 655.659 236.711 668.196 219.742 677.567C202.773 686.684 183.905 691.243 163.137 691.243H134.645C116.157 691.243 98.6814 687.824 82.2191 680.986C66.0101 673.894 51.8273 664.27 39.6705 652.113C27.5138 639.957 17.8897 625.774 10.7983 609.565C3.9601 593.356 0.541016 576.007 0.541016 557.519V264.997C0.541016 246.509 3.9601 229.16 10.7983 212.951C17.8897 196.742 27.5138 182.559 39.6705 170.403C51.8273 158.246 66.0101 148.748 82.2191 141.91C98.6814 134.819 116.157 131.273 134.645 131.273H173.395C191.883 131.273 209.232 134.819 225.441 141.91C241.65 148.748 255.833 158.246 267.989 170.403C280.146 182.559 289.644 196.742 296.482 212.951C303.573 229.16 307.119 246.509 307.119 264.997V287.031L258.112 294.629V264.997C258.112 252.84 255.833 241.57 251.274 231.186C246.715 220.549 240.51 211.305 232.659 203.454C224.808 195.602 215.563 189.397 204.926 184.839C194.542 180.28 183.272 178.001 171.115 178.001H136.924C124.768 178.001 113.371 180.28 102.734 184.839C92.3497 189.397 83.1056 195.602 75.0011 203.454C67.1498 211.305 60.9448 220.549 56.3861 231.186C51.8273 241.57 49.5479 252.84 49.5479 264.997V557.519C49.5479 569.676 51.8273 581.073 56.3861 591.71C60.9448 602.094 67.1498 611.338 75.0011 619.442C83.1056 627.293 92.3497 633.498 102.734 638.057C113.371 642.616 124.768 644.895 136.924 644.895H171.115C183.272 644.895 194.542 642.616 204.926 638.057C215.563 633.498 224.808 627.293 232.659 619.442C240.51 611.338 246.715 602.094 251.274 591.71C255.833 581.073 258.112 569.676 258.112 557.519V443.929H171.115V397.202H307.119V683.645Z" fill="black"/>
<path d="M1451.51 557.519C1451.51 576.007 1447.96 593.356 1440.87 609.565C1434.03 625.774 1424.53 639.957 1412.38 652.113C1400.22 664.27 1386.04 673.894 1369.83 680.986C1353.62 687.824 1336.27 691.243 1317.78 691.243H1279.03C1260.54 691.243 1243.07 687.824 1226.61 680.986C1210.4 673.894 1196.21 664.27 1184.06 652.113C1171.9 639.957 1162.28 625.774 1155.19 609.565C1148.35 593.356 1144.93 576.007 1144.93 557.519V138.871H1193.93V557.519C1193.93 569.676 1196.21 581.073 1200.77 591.71C1205.33 602.094 1211.54 611.338 1219.39 619.442C1227.49 627.293 1236.74 633.498 1247.12 638.057C1257.76 642.616 1269.15 644.895 1281.31 644.895H1315.5C1327.66 644.895 1338.93 642.616 1349.31 638.057C1359.95 633.498 1369.19 627.293 1377.05 619.442C1384.9 611.338 1391.1 602.094 1395.66 591.71C1400.22 581.073 1402.5 569.676 1402.5 557.519V138.871H1451.51V557.519Z" fill="black"/>
<path d="M1824.57 683.645L1676.79 451.147H1609.54V683.645H1560.54V138.871H1733.39C1751.88 138.871 1769.23 142.417 1785.44 149.508C1801.65 156.346 1815.83 165.844 1827.98 178.001C1840.14 190.157 1849.64 204.467 1856.48 220.929C1863.57 237.138 1867.11 254.487 1867.11 272.975V317.043C1867.11 335.532 1863.57 353.007 1856.48 369.469C1849.64 385.678 1840.14 399.861 1827.98 412.018C1815.83 424.175 1801.65 433.799 1785.44 440.89C1769.23 447.728 1751.88 451.147 1733.39 451.147L1881.17 683.645H1824.57ZM1818.11 272.975C1818.11 260.818 1815.83 249.548 1811.27 239.164C1806.71 228.527 1800.51 219.283 1792.65 211.432C1784.8 203.327 1775.56 196.995 1764.92 192.437C1754.54 187.878 1743.27 185.599 1731.11 185.599H1609.54V404.42H1731.11C1743.27 404.42 1754.54 402.14 1764.92 397.582C1775.56 393.023 1784.8 386.818 1792.65 378.967C1800.51 370.862 1806.71 361.618 1811.27 351.234C1815.83 340.597 1818.11 329.2 1818.11 317.043V272.975Z" fill="black"/>
<path d="M2281.58 549.921C2281.58 568.409 2278.04 585.758 2270.95 601.967C2264.11 618.176 2254.61 632.359 2242.45 644.516C2230.3 656.672 2215.99 666.296 2199.53 673.388C2183.32 680.226 2165.97 683.645 2147.48 683.645H1975.01V138.871H2147.48C2165.97 138.871 2183.32 142.417 2199.53 149.508C2215.99 156.346 2230.3 165.844 2242.45 178.001C2254.61 190.157 2264.11 204.467 2270.95 220.929C2278.04 237.138 2281.58 254.487 2281.58 272.975V549.921ZM2232.58 272.975C2232.58 260.818 2230.3 249.548 2225.74 239.164C2221.18 228.527 2214.85 219.283 2206.74 211.432C2198.89 203.327 2189.65 196.995 2179.01 192.437C2168.63 187.878 2157.36 185.599 2145.2 185.599H2024.01V636.918H2145.2C2157.36 636.918 2168.63 634.638 2179.01 630.079C2189.65 625.521 2198.89 619.316 2206.74 611.464C2214.85 603.613 2221.18 594.496 2225.74 584.112C2230.3 573.475 2232.58 562.078 2232.58 549.921V272.975Z" fill="black"/>
<path d="M2876.12 557.519C2876.12 576.007 2872.32 593.356 2864.73 609.565C2857.38 625.774 2847.38 639.957 2834.71 652.113C2822.3 664.27 2807.74 673.894 2791.03 680.986C2774.56 687.824 2757.09 691.243 2738.6 691.243H2699.47C2680.98 691.243 2663.38 687.824 2646.67 680.986C2630.2 673.894 2615.64 664.27 2602.98 652.113C2590.57 639.957 2580.56 625.774 2572.97 609.565C2565.62 593.356 2561.95 576.007 2561.95 557.519V535.865L2610.95 527.887V557.519C2610.95 569.676 2613.36 581.073 2618.17 591.71C2623.24 602.094 2629.95 611.338 2638.31 619.442C2646.67 627.293 2656.29 633.498 2667.18 638.057C2678.32 642.616 2689.97 644.895 2702.13 644.895H2736.32C2748.48 644.895 2760 642.616 2770.89 638.057C2781.78 633.498 2791.41 627.293 2799.76 619.442C2808.12 611.338 2814.71 602.094 2819.52 591.71C2824.58 581.073 2827.12 569.676 2827.12 557.519V541.183C2827.12 522.442 2823.44 506.866 2816.1 494.456C2808.76 482.046 2799 471.535 2786.85 462.924C2774.69 454.06 2760.89 446.589 2745.44 440.51C2730.24 434.432 2714.54 428.353 2698.33 422.275C2682.12 416.197 2666.29 409.485 2650.84 402.14C2635.65 394.796 2621.97 385.678 2609.82 374.788C2597.66 363.644 2587.91 350.094 2580.56 334.139C2573.22 318.183 2569.55 298.555 2569.55 275.254V264.997C2569.55 246.509 2572.97 229.16 2579.8 212.951C2586.89 196.742 2596.52 182.559 2608.68 170.403C2620.83 158.246 2635.02 148.748 2651.22 141.91C2667.69 134.819 2685.16 131.273 2703.65 131.273H2738.6C2757.09 131.273 2774.44 134.819 2790.65 141.91C2806.86 148.748 2821.04 158.246 2833.2 170.403C2845.35 182.559 2854.85 196.742 2861.69 212.951C2868.78 229.16 2872.32 246.509 2872.32 264.997V279.053L2823.32 287.031V264.997C2823.32 252.84 2821.04 241.57 2816.48 231.186C2811.92 220.549 2805.72 211.305 2797.86 203.454C2790.01 195.602 2780.77 189.397 2770.13 184.839C2759.75 180.28 2748.48 178.001 2736.32 178.001H2705.93C2693.77 178.001 2682.38 180.28 2671.74 184.839C2661.35 189.397 2652.11 195.602 2644.01 203.454C2636.15 211.305 2629.95 220.549 2625.39 231.186C2620.83 241.57 2618.55 252.84 2618.55 264.997V275.254C2618.55 292.73 2622.23 307.419 2629.57 319.323C2636.91 331.226 2646.67 341.483 2658.82 350.094C2670.98 358.452 2684.66 365.797 2699.85 372.129C2715.3 378.207 2731.13 384.539 2747.34 391.123C2763.55 397.455 2779.25 404.547 2794.45 412.398C2809.89 419.996 2823.7 429.493 2835.85 440.89C2848.01 452.034 2857.76 465.71 2865.11 481.919C2872.45 498.128 2876.12 517.883 2876.12 541.183V557.519Z" fill="black"/>
<path d="M3239.31 683.645V434.812H3030.74V683.645H2981.74V138.871H3030.74V388.084H3239.31V138.871H3288.31V683.645H3239.31Z" fill="black"/>
<path d="M3617.69 556.759H3445.21L3409.5 683.645H3358.59L3518.15 138.871H3543.98L3704.3 683.645H3653.78L3617.69 556.759ZM3458.51 510.032H3604.77L3532.97 258.919L3531.45 238.784L3529.93 258.919L3458.51 510.032Z" fill="black"/>
<path d="M4080.78 549.921C4080.78 568.409 4077.23 585.758 4070.14 601.967C4063.31 618.176 4053.81 632.359 4041.65 644.516C4029.49 656.672 4015.19 666.296 3998.72 673.388C3982.51 680.226 3965.17 683.645 3946.68 683.645H3774.2V138.871H3946.68C3965.17 138.871 3982.51 142.417 3998.72 149.508C4015.19 156.346 4029.49 165.844 4041.65 178.001C4053.81 190.157 4063.31 204.467 4070.14 220.929C4077.23 237.138 4080.78 254.487 4080.78 272.975V549.921ZM4031.77 272.975C4031.77 260.818 4029.49 249.548 4024.94 239.164C4020.38 228.527 4014.05 219.283 4005.94 211.432C3998.09 203.327 3988.85 196.995 3978.21 192.437C3967.82 187.878 3956.55 185.599 3944.4 185.599H3823.21V636.918H3944.4C3956.55 636.918 3967.82 634.638 3978.21 630.079C3988.85 625.521 3998.09 619.316 4005.94 611.464C4014.05 603.613 4020.38 594.496 4024.94 584.112C4029.49 573.475 4031.77 562.078 4031.77 549.921V272.975Z" fill="black"/>
<path d="M4197.41 683.645V138.871H4503.99V185.599H4246.42V388.084H4454.98V434.812H4246.42V636.918H4503.99V683.645H4197.41Z" fill="black"/>
<path d="M4896.42 557.519C4896.42 576.007 4892.62 593.356 4885.03 609.565C4877.68 625.774 4867.68 639.957 4855.01 652.113C4842.6 664.27 4828.04 673.894 4811.33 680.986C4794.86 687.824 4777.39 691.243 4758.9 691.243H4719.77C4701.28 691.243 4683.68 687.824 4666.96 680.986C4650.5 673.894 4635.94 664.27 4623.28 652.113C4610.87 639.957 4600.86 625.774 4593.26 609.565C4585.92 593.356 4582.25 576.007 4582.25 557.519V535.865L4631.25 527.887V557.519C4631.25 569.676 4633.66 581.073 4638.47 591.71C4643.54 602.094 4650.25 611.338 4658.61 619.442C4666.96 627.293 4676.59 633.498 4687.48 638.057C4698.62 642.616 4710.27 644.895 4722.43 644.895H4756.62C4768.78 644.895 4780.3 642.616 4791.19 638.057C4802.08 633.498 4811.71 627.293 4820.06 619.442C4828.42 611.338 4835.01 602.094 4839.82 591.71C4844.88 581.073 4847.42 569.676 4847.42 557.519V541.183C4847.42 522.442 4843.74 506.866 4836.4 494.456C4829.05 482.046 4819.3 471.535 4807.15 462.924C4794.99 454.06 4781.19 446.589 4765.74 440.51C4750.54 434.432 4734.84 428.353 4718.63 422.275C4702.42 416.197 4686.59 409.485 4671.14 402.14C4655.95 394.796 4642.27 385.678 4630.11 374.788C4617.96 363.644 4608.21 350.094 4600.86 334.139C4593.52 318.183 4589.84 298.555 4589.84 275.254V264.997C4589.84 246.509 4593.26 229.16 4600.1 212.951C4607.19 196.742 4616.82 182.559 4628.97 170.403C4641.13 158.246 4655.31 148.748 4671.52 141.91C4687.99 134.819 4705.46 131.273 4723.95 131.273H4758.9C4777.39 131.273 4794.74 134.819 4810.95 141.91C4827.15 148.748 4841.34 158.246 4853.49 170.403C4865.65 182.559 4875.15 196.742 4881.99 212.951C4889.08 229.16 4892.62 246.509 4892.62 264.997V279.053L4843.62 287.031V264.997C4843.62 252.84 4841.34 241.57 4836.78 231.186C4832.22 220.549 4826.01 211.305 4818.16 203.454C4810.31 195.602 4801.07 189.397 4790.43 184.839C4780.05 180.28 4768.78 178.001 4756.62 178.001H4726.23C4714.07 178.001 4702.67 180.28 4692.04 184.839C4681.65 189.397 4672.41 195.602 4664.3 203.454C4656.45 211.305 4650.25 220.549 4645.69 231.186C4641.13 241.57 4638.85 252.84 4638.85 264.997V275.254C4638.85 292.73 4642.52 307.419 4649.87 319.323C4657.21 331.226 4666.96 341.483 4679.12 350.094C4691.28 358.452 4704.95 365.797 4720.15 372.129C4735.6 378.207 4751.43 384.539 4767.64 391.123C4783.85 397.455 4799.55 404.547 4814.74 412.398C4830.19 419.996 4844 429.493 4856.15 440.89C4868.31 452.034 4878.06 465.71 4885.41 481.919C4892.75 498.128 4896.42 517.883 4896.42 541.183V557.519Z" fill="black"/>
<path d="M676.112 96.053C688.537 92.7484 695.591 78.7229 691.869 64.7262C688.146 50.7294 675.056 42.0618 662.631 45.3664C650.206 48.6711 643.152 62.6966 646.875 76.6933C650.598 90.6901 663.688 99.3577 676.112 96.053Z" fill="black"/>
<path d="M729.817 93.4284C735.381 103.023 733.335 114.603 725.247 119.293C717.158 123.984 706.091 120.008 700.527 110.414C694.964 100.82 697.01 89.2398 705.098 84.5493C713.186 79.8589 724.254 83.8341 729.817 93.4284Z" fill="black"/>
<path d="M658.129 140.701C644.106 148.172 629.128 147.45 624.673 139.088C620.219 130.727 627.976 117.893 641.999 110.423C656.023 102.952 671.001 103.675 675.455 112.036C679.91 120.397 672.152 133.231 658.129 140.701Z" fill="black"/>
<path d="M698.143 608.605C697.612 601.872 690.668 596.927 682.634 597.561C674.6 598.195 668.517 604.167 669.048 610.9C669.58 617.634 676.523 622.578 684.558 621.944C692.592 621.31 698.674 615.338 698.143 608.605Z" fill="black"/>
<path d="M723.641 607.497C734.127 606.67 743.098 611.954 743.678 619.3C744.257 626.646 736.226 633.272 725.74 634.099C715.253 634.926 706.283 629.642 705.703 622.296C705.124 614.95 713.155 608.324 723.641 607.497Z" fill="black"/>
<path d="M748.813 654.844C748.795 647.475 740.254 641.522 729.735 641.546C719.217 641.571 710.703 647.565 710.721 654.933C710.738 662.302 719.279 668.255 729.798 668.231C740.317 668.206 748.83 662.212 748.813 654.844Z" fill="black"/>
<path d="M691.204 633.489C700.126 634.554 706.754 640.484 706.008 646.735C705.262 652.985 697.424 657.188 688.502 656.123C679.58 655.058 672.952 649.128 673.698 642.878C674.444 636.628 682.282 632.424 691.204 633.489Z" fill="black"/>
<path d="M710.261 678.505C711.852 672.415 706.094 665.637 697.4 663.365C688.707 661.094 680.369 664.19 678.778 670.28C677.187 676.37 682.945 683.148 691.638 685.419C700.332 687.691 708.669 684.595 710.261 678.505Z" fill="black"/>
<path d="M733.282 676.362C741.839 676.324 748.794 680.557 748.817 685.816C748.841 691.075 741.923 695.368 733.367 695.406C724.811 695.444 717.855 691.212 717.832 685.953C717.809 680.694 724.726 676.4 733.282 676.362Z" fill="black"/>
<path d="M464.601 556.73C455.614 562.835 457.572 581.395 468.976 598.185C480.38 614.976 496.911 623.639 505.898 617.535C514.886 611.431 512.927 592.871 501.524 576.08C490.12 559.289 473.589 550.626 464.601 556.73Z" fill="black"/>
<path d="M821.353 479.861C821.602 474.319 817.476 469.633 812.139 469.394C806.802 469.154 802.273 473.453 802.025 478.995C801.777 484.536 805.902 489.223 811.239 489.462C816.577 489.701 821.105 485.403 821.353 479.861Z" fill="black"/>
<path d="M837.701 457.323C843.038 457.562 847.163 462.248 846.915 467.79C846.667 473.332 842.138 477.63 836.801 477.391C831.464 477.152 827.338 472.466 827.587 466.924C827.835 461.382 832.363 457.084 837.701 457.323Z" fill="black"/>
<path d="M872.122 453.589C872.37 448.048 868.245 443.361 862.907 443.122C857.57 442.883 853.042 447.181 852.793 452.723C852.545 458.265 856.67 462.951 862.008 463.19C867.345 463.43 871.873 459.131 872.122 453.589Z" fill="black"/>
<path d="M883.143 422.886C888.481 423.125 892.606 427.811 892.358 433.353C892.109 438.895 887.581 443.193 882.244 442.954C876.907 442.715 872.781 438.028 873.029 432.487C873.278 426.945 877.806 422.646 883.143 422.886Z" fill="black"/>
<path d="M867.151 484.476C867.4 478.934 863.274 474.248 857.937 474.009C852.599 473.77 848.071 478.068 847.823 483.61C847.574 489.152 851.7 493.838 857.037 494.077C862.375 494.316 866.903 490.018 867.151 484.476Z" fill="black"/>
<path d="M835.215 488.21C840.553 488.449 844.678 493.135 844.43 498.677C844.181 504.219 839.653 508.517 834.316 508.278C828.978 508.039 824.853 503.353 825.101 497.811C825.35 492.269 829.878 487.971 835.215 488.21Z" fill="black"/>
<path d="M840.525 523.529C840.773 517.987 836.647 513.301 831.31 513.061C825.973 512.822 821.445 517.121 821.196 522.662C820.948 528.204 825.073 532.891 830.411 533.13C835.748 533.369 840.276 529.07 840.525 523.529Z" fill="black"/>
<path d="M805.393 523.357C810.731 523.596 814.856 528.283 814.608 533.824C814.359 539.366 809.831 543.665 804.494 543.425C799.157 543.186 795.031 538.5 795.279 532.958C795.528 527.416 800.056 523.118 805.393 523.357Z" fill="black"/>
<path d="M818.158 508.263C818.407 502.721 814.281 498.035 808.944 497.795C803.606 497.556 799.078 501.855 798.83 507.396C798.581 512.938 802.707 517.625 808.044 517.864C813.382 518.103 817.91 513.805 818.158 508.263Z" fill="black"/>
<path d="M773.444 218.187C780.62 218.508 786.265 222.603 786.053 227.332C785.841 232.061 779.852 235.634 772.676 235.312C765.5 234.99 759.854 230.896 760.066 226.167C760.278 221.438 766.267 217.865 773.444 218.187Z" fill="black"/>
<path d="M738.218 219.252C745.394 219.573 751.039 223.668 750.828 228.397C750.615 233.126 744.626 236.699 737.45 236.377C730.274 236.056 724.629 231.961 724.841 227.232C725.052 222.503 731.042 218.93 738.218 219.252Z" fill="black"/>
<path d="M677.587 242.328C684.764 242.65 690.409 246.744 690.197 251.473C689.985 256.202 683.996 259.775 676.82 259.454C669.644 259.132 663.998 255.038 664.21 250.309C664.422 245.58 670.411 242.007 677.587 242.328Z" fill="black"/>
<path d="M715.049 264.609C715.261 259.88 709.615 255.786 702.439 255.464C695.263 255.142 689.274 258.715 689.062 263.444C688.85 268.173 694.495 272.268 701.671 272.59C708.848 272.911 714.837 269.338 715.049 264.609Z" fill="black"/>
<path d="M729.066 267.89C736.242 268.212 741.887 272.306 741.675 277.035C741.463 281.764 735.474 285.337 728.298 285.015C721.122 284.694 715.476 280.599 715.688 275.87C715.9 271.141 721.89 267.568 729.066 267.89Z" fill="black"/>
<path d="M771.497 293.011C771.709 288.282 766.064 284.188 758.888 283.866C751.712 283.544 745.722 287.117 745.51 291.846C745.298 296.575 750.944 300.67 758.12 300.991C765.296 301.313 771.285 297.74 771.497 293.011Z" fill="black"/>
<path d="M762.438 260.789C769.614 261.111 775.26 265.206 775.048 269.935C774.836 274.664 768.846 278.237 761.67 277.915C754.494 277.593 748.849 273.499 749.061 268.77C749.273 264.041 755.262 260.468 762.438 260.789Z" fill="black"/>
<path d="M772.207 246.858C772.419 242.129 766.774 238.035 759.598 237.713C752.422 237.391 746.432 240.964 746.22 245.693C746.008 250.422 751.654 254.517 758.83 254.838C766.006 255.16 771.995 251.587 772.207 246.858Z" fill="black"/>
<path d="M820.846 243.308C821.057 238.579 815.412 234.484 808.236 234.163C801.06 233.841 795.07 237.414 794.859 242.143C794.647 246.872 800.292 250.966 807.468 251.288C814.644 251.61 820.634 248.037 820.846 243.308Z" fill="black"/>
<path d="M794.745 252.979C801.921 253.301 807.567 257.395 807.355 262.124C807.143 266.853 801.153 270.426 793.977 270.104C786.801 269.783 781.156 265.688 781.368 260.959C781.58 256.23 787.569 252.657 794.745 252.979Z" fill="black"/>
<path d="M803.449 288.396C803.661 283.667 798.016 279.572 790.84 279.251C783.664 278.929 777.674 282.502 777.462 287.231C777.25 291.96 782.896 296.054 790.072 296.376C797.248 296.698 803.237 293.125 803.449 288.396Z" fill="black"/>
<path d="M780.491 305.421C787.669 305.155 793.659 309.553 793.869 315.243C794.08 320.933 788.431 325.761 781.253 326.026C774.074 326.292 768.084 321.894 767.874 316.204C767.664 310.514 773.312 305.686 780.491 305.421Z" fill="black"/>
<path d="M763.337 316.308C763.127 310.618 757.137 306.22 749.959 306.486C742.78 306.751 737.132 311.579 737.342 317.269C737.553 322.959 743.542 327.357 750.721 327.091C757.899 326.826 763.548 321.998 763.337 316.308Z" fill="black"/>
<path d="M719.072 291.575C726.25 291.309 732.24 295.707 732.45 301.397C732.661 307.087 727.012 311.915 719.834 312.18C712.655 312.446 706.666 308.048 706.455 302.358C706.245 296.668 711.893 291.84 719.072 291.575Z" fill="black"/>
<path d="M690.913 308.142C690.702 302.452 684.712 298.055 677.534 298.32C670.356 298.586 664.707 303.414 664.917 309.104C665.128 314.794 671.118 319.191 678.296 318.926C685.475 318.66 691.123 313.832 690.913 308.142Z" fill="black"/>
<path d="M646.629 291.739C653.601 290.01 660.364 293.089 661.734 298.616C663.105 304.142 658.564 310.024 651.592 311.753C644.62 313.482 637.856 310.403 636.486 304.877C635.115 299.35 639.656 293.468 646.629 291.739Z" fill="black"/>
<path d="M662.092 332.175C660.696 326.545 654.319 323.282 647.849 324.886C641.379 326.49 637.266 332.355 638.663 337.985C640.059 343.615 646.435 346.878 652.905 345.274C659.375 343.67 663.488 337.805 662.092 332.175Z" fill="black"/>
<path d="M684.3 324.59C690.958 324.264 696.586 328.696 696.869 334.489C697.153 340.283 691.986 345.244 685.328 345.57C678.671 345.896 673.043 341.464 672.759 335.671C672.476 329.877 677.643 324.916 684.3 324.59Z" fill="black"/>
<path d="M725.728 328.921C725.444 323.127 719.817 318.695 713.159 319.021C706.501 319.348 701.334 324.309 701.618 330.102C701.902 335.896 707.529 340.328 714.187 340.002C720.845 339.676 726.012 334.714 725.728 328.921Z" fill="black"/>
<path d="M735.84 336.527C742.903 336.18 748.872 340.882 749.173 347.028C749.475 353.173 743.993 358.436 736.931 358.782C729.868 359.128 723.899 354.427 723.598 348.281C723.297 342.135 728.778 336.873 735.84 336.527Z" fill="black"/>
<path d="M781.478 346.882C782.166 340.767 777.027 335.17 770 334.38C762.973 333.59 756.72 337.906 756.032 344.021C755.345 350.135 760.484 355.732 767.51 356.522C774.537 357.313 780.791 352.996 781.478 346.882Z" fill="black"/>
<path d="M761.847 365.556C769.279 366.391 774.652 372.862 773.849 380.008C773.045 387.154 766.369 392.27 758.938 391.435C751.506 390.599 746.133 384.129 746.936 376.982C747.74 369.836 754.416 364.72 761.847 365.556Z" fill="black"/>
<path d="M739.411 378.774C740.215 371.628 734.842 365.157 727.41 364.322C719.979 363.486 713.303 368.602 712.499 375.748C711.696 382.894 717.069 389.365 724.5 390.2C731.932 391.036 738.608 385.92 739.411 378.774Z" fill="black"/>
<path d="M699.565 345.805C707.028 345.329 713.449 350.761 713.907 357.937C714.365 365.114 708.686 371.318 701.223 371.794C693.76 372.27 687.338 366.839 686.88 359.662C686.422 352.485 692.101 346.281 699.565 345.805Z" fill="black"/>
<path d="M678.191 362.667C677.734 355.491 671.312 350.059 663.849 350.535C656.386 351.011 650.707 357.215 651.165 364.392C651.623 371.568 658.044 377 665.507 376.524C672.97 376.048 678.649 369.844 678.191 362.667Z" fill="black"/>
<path d="M685.505 376.452C692.969 375.975 699.39 381.407 699.848 388.584C700.306 395.761 694.627 401.964 687.164 402.441C679.7 402.917 673.279 397.485 672.821 390.308C672.363 383.132 678.042 376.928 685.505 376.452Z" fill="black"/>
<path d="M727.185 404.56C726.727 397.383 720.305 391.951 712.842 392.428C705.379 392.904 699.7 399.108 700.158 406.284C700.616 413.461 707.037 418.893 714.5 418.417C721.964 417.94 727.643 411.737 727.185 404.56Z" fill="black"/>
<path d="M746.924 402.013C754.387 401.537 760.809 406.969 761.267 414.146C761.725 421.322 756.046 427.526 748.582 428.002C741.119 428.478 734.698 423.047 734.24 415.87C733.782 408.693 739.461 402.489 746.924 402.013Z" fill="black"/>
<path d="M701.913 284.846C702.125 280.116 696.479 276.022 689.303 275.7C682.127 275.379 676.138 278.952 675.926 283.681C675.714 288.41 681.359 292.504 688.536 292.826C695.712 293.147 701.701 289.575 701.913 284.846Z" fill="black"/>
<path d="M663.032 266.47C670.208 266.791 675.853 270.886 675.641 275.615C675.429 280.344 669.44 283.917 662.264 283.595C655.088 283.274 649.442 279.179 649.654 274.45C649.866 269.721 655.855 266.148 663.032 266.47Z" fill="black"/>
<path d="M715.759 234.077C715.971 229.348 710.325 225.254 703.149 224.932C695.973 224.61 689.984 228.183 689.772 232.912C689.56 237.642 695.205 241.736 702.381 242.058C709.558 242.379 715.547 238.806 715.759 234.077Z" fill="black"/>
<path d="M724.805 240.908C731.982 241.23 737.627 245.324 737.415 250.053C737.203 254.782 731.214 258.355 724.038 258.034C716.862 257.712 711.216 253.618 711.428 248.888C711.64 244.159 717.629 240.586 724.805 240.908Z" fill="black"/>
<path d="M828.619 377.761C834.34 368.719 843.439 364.211 848.942 367.693C854.446 371.175 854.271 381.328 848.55 390.37C842.829 399.412 833.73 403.92 828.227 400.438C822.723 396.956 822.899 386.803 828.619 377.761Z" fill="black"/>
<path d="M861.353 329.465C854.573 328.469 847.9 335.664 846.45 345.536C844.999 355.408 849.319 364.218 856.099 365.214C862.88 366.211 869.552 359.016 871.003 349.144C872.454 339.272 868.133 330.462 861.353 329.465Z" fill="black"/>
<path d="M852.49 311.272C850.682 302.189 854.273 293.819 860.512 292.578C866.75 291.336 873.273 297.692 875.082 306.775C876.89 315.858 873.298 324.228 867.06 325.47C860.821 326.712 854.298 320.355 852.49 311.272Z" fill="black"/>
<path fill-rule="evenodd" clip-rule="evenodd" d="M565.897 178.172L566.522 177.509C593.38 148.994 625.552 114.237 623.188 63.4875C622.301 44.4538 629.165 30.1846 639.902 20.0357C650.244 10.2604 663.618 4.80727 675.403 1.59323C683.163 -0.523299 690.903 -0.443101 698.524 2.13884C705.979 4.66428 712.701 9.36967 718.952 15.5357C731.237 27.653 743.329 47.0779 756.872 72.9658C766.569 91.5023 777.34 109.081 798.665 128.685C814.534 143.273 836.451 159.165 868.459 177.287C871.472 178.886 874.444 180.54 877.373 182.248C886.412 187.195 896.197 192.307 906.804 197.602C1021.01 254.612 1039.19 359.195 1052.47 450.565C1057.98 488.471 1043.05 553.625 996.277 610.418C949.044 667.772 869.411 716.635 745.401 721.905C630.966 726.767 545.584 696.332 487.389 647.491C429.256 598.701 399.044 532.189 393.865 466.424C391.745 439.508 393.061 412.04 402.343 381.618C411.601 351.278 428.62 318.528 457.234 280.757C473.58 259.181 488.484 246.804 505.272 233.24C506.061 232.602 506.854 231.962 507.653 231.317C523.669 218.391 541.804 203.756 565.897 178.173L565.897 178.172ZM835.056 169.579C850.055 179.271 867.804 189.519 888.995 200.496C878.645 210.648 868.632 222.261 859.071 235.201C836.424 218.509 807.839 207.069 775.89 203.598C692.065 194.49 616.832 243.682 607.852 313.473C598.872 383.264 659.546 447.224 743.371 456.332C752.816 457.359 762.152 457.645 771.296 457.245C765.191 492.436 761.993 527.234 761.461 560.798C750.469 560.98 739.307 560.428 728.039 559.096C696.644 555.384 667.459 545.972 641.617 532.16C638.45 521.643 635.003 511.026 631.273 500.333C605.852 427.459 571.039 361.843 532.616 309.834C556.241 209.502 660.494 141.407 775.815 155.043C796.645 157.506 816.502 162.477 835.056 169.579ZM815.849 156.404C807.866 150.563 800.859 144.913 794.651 139.409C795.787 142.077 795.899 144.399 794.741 145.959C791.804 149.915 781.811 147.472 772.422 140.501C763.034 133.531 757.803 124.673 760.74 120.717C763.124 117.506 770.157 118.512 777.742 122.732C771.308 115.609 766.009 108.67 761.406 101.805C760.691 102.368 759.756 103.013 759.138 103.318C751.806 106.938 741.247 100.524 735.554 88.9924C729.861 77.4607 731.189 65.178 738.521 61.5582L738.555 61.5413C716.1 21.8927 698.984 6.20166 678.205 11.8686C656.222 17.864 632.349 31.2518 633.827 62.9919C635.477 98.4105 621.729 126.597 604.692 149.654C612.962 147.095 619.939 147.63 622.972 151.773C628.027 158.68 620.215 172.996 605.523 183.751C590.831 194.505 574.823 197.625 569.767 190.718C569.604 190.495 569.454 190.265 569.318 190.026C563.788 195.772 558.569 200.951 553.616 205.677C561.846 201.506 569.523 200.935 572.352 204.8C574.011 207.067 573.712 210.461 571.878 214.208C622.048 165.7 696.549 139.21 775.908 148.594C789.641 150.218 802.982 152.852 815.849 156.404ZM558.172 228.714C548.303 235.284 538.058 236.974 534.688 232.37C532.879 229.899 533.397 226.088 535.695 221.939C531.497 225.564 527.498 228.899 523.656 232.048C525.237 231.893 526.627 232.192 527.715 233.004C532.014 236.215 529.962 246.234 523.131 255.381C516.299 264.528 507.276 269.341 502.976 266.129C499.151 263.273 500.353 255.03 505.474 246.805C500.314 251.045 495.365 255.25 490.492 259.771C500.48 270.073 510.373 281.352 520.082 293.51C528.705 269.626 541.713 247.806 558.172 228.714ZM476.076 274.514C472.669 278.371 469.234 282.555 465.724 287.189C422.268 344.55 406.942 388.974 404.135 430.172C465.389 475.071 528.434 545.241 578.791 630.088C592.615 653.38 604.766 676.569 615.22 699.33C625.193 701.848 635.538 704.012 646.262 705.796C648.287 661.529 642.134 609.278 627.246 553.359C548.031 509.237 499.115 426.38 509.551 338.117C510.406 330.892 511.638 323.794 513.229 316.839C501.116 301.187 488.664 287.004 476.076 274.514ZM668.976 708.933C692.608 711.553 717.92 712.412 744.949 711.264C756.465 710.774 767.579 709.902 778.303 708.676C768.441 671.852 762.67 630.402 761.573 586.349C749.342 586.605 736.913 586.018 724.362 584.534C698.179 581.438 673.422 574.669 650.653 564.872C663.778 617.129 669.753 666.181 668.976 708.933ZM801.363 705.406C805.029 704.781 808.645 704.114 812.212 703.405C815.376 662.36 824.872 617.786 840.538 572.349C822.495 578.587 803.44 582.87 783.716 584.953C784.854 628.65 790.958 669.569 801.363 705.406ZM835.761 697.944C839.423 655.272 850.388 608.239 868.403 560.78C934.381 528.523 982.045 468.363 990.718 395.011C992.011 384.077 992.393 373.225 991.92 362.52C1000.21 353.948 1008.61 345.927 1017.06 338.485C1030.17 375.177 1036.43 414.273 1041.93 452.097C1042.53 456.243 1042.86 460.793 1042.9 465.683C1029.02 476.449 1015.23 488.074 1001.63 500.535C937.698 559.119 888.613 626.452 858.811 690.955C851.395 693.49 843.714 695.826 835.761 697.944ZM890.23 678.365C985.314 634.234 1028.32 555.273 1039.7 497.311C1031.03 504.415 1022.41 511.882 1013.88 519.704C960.487 568.625 918.27 624.128 890.23 678.365ZM1007.13 314.181C1000.78 319.799 994.463 325.718 988.195 331.93C980.041 291.249 959.525 253.768 929.987 223.32C941.308 230.911 951.392 239.097 960.394 247.783C959.219 254.856 963.874 267.982 972.753 281.055C983.237 296.491 995.96 306.48 1002.55 304.861C1002.35 304.463 1002.14 304.066 1001.93 303.669C1003.75 307.138 1005.48 310.644 1007.13 314.181ZM589.77 691.884C581.016 673.532 571.085 654.912 559.992 636.221C514.89 560.23 458.808 496.94 403.853 455.214C403.997 458.679 404.21 462.135 404.482 465.588C411.764 558.037 470.572 651.987 589.77 691.884ZM611.63 502.61C589.866 440.219 560.674 383.568 528.279 337.295C522.42 408.243 557.684 474.765 616.318 516.495C614.813 511.883 613.25 507.254 611.63 502.61ZM883.375 524.853C933.051 493.232 967.866 443.031 974.913 383.436C975.021 382.526 975.121 381.617 975.215 380.709C952.441 406.792 930.742 437.064 911.146 470.929C900.877 488.675 891.616 506.723 883.375 524.853ZM852.107 541.428C863.608 512.943 877.491 484.356 893.719 456.312C918.456 413.563 946.3 376.12 975.472 345.014C971.133 296.458 947.837 251.604 911.734 217.506C900.318 227.377 889.277 239.148 878.78 252.619C903.091 278.423 915.879 311.718 911.409 346.457C904.315 401.59 855.875 443.869 794.516 454.706C794.32 455.736 794.126 456.768 793.935 457.803C787.555 492.33 784.204 526.511 783.616 559.424C807.782 556.815 830.86 550.64 852.107 541.428ZM856.215 239.126C834.733 222.3 807.01 210.724 775.832 207.337C698.138 198.895 628.408 244.489 620.085 309.175C611.762 373.861 667.997 433.143 745.691 441.585C755.303 442.629 764.793 442.846 774.06 442.303C790.181 360.271 819.758 289.966 856.215 239.126ZM797.663 439.202C852.357 427.913 895.04 389.47 901.438 339.746C905.326 309.529 895.126 280.491 875.232 257.264C841.447 302.396 813.642 365.335 797.663 439.202Z" fill="black"/>
</svg>
