<svg width="2333" height="1715" viewBox="0 0 2333 1715" fill="none" xmlns="http://www.w3.org/2000/svg">
<path d="M65.6933 1712.68V1650.63H13.6877V1712.68H1.46777V1576.84H13.6877V1638.98H65.6933V1576.84H77.9132V1712.68H65.6933Z" fill="black"/>
<path d="M160.042 1681.04H117.036L108.131 1712.68H95.4379L135.224 1576.84H141.665L181.64 1712.68H169.042L160.042 1681.04ZM120.351 1669.39H156.822L138.918 1606.78L138.539 1601.75L138.16 1606.78L120.351 1669.39Z" fill="black"/>
<path d="M269.074 1712.68L212.427 1613.79L211.29 1607.91V1712.68H199.07V1576.84H205.417L262.064 1675.83L263.296 1681.61V1576.84H275.516V1712.68H269.074Z" fill="black"/>
<path d="M383.127 1679.34C383.127 1683.95 382.243 1688.27 380.474 1692.31C378.769 1696.36 376.401 1699.89 373.37 1702.92C370.338 1705.96 366.77 1708.36 362.665 1710.12C358.624 1711.83 354.298 1712.68 349.688 1712.68H306.681V1576.84H349.688C354.298 1576.84 358.624 1577.73 362.665 1579.49C366.77 1581.2 370.338 1583.57 373.37 1586.6C376.401 1589.63 378.769 1593.2 380.474 1597.3C382.243 1601.34 383.127 1605.67 383.127 1610.28V1679.34ZM370.907 1610.28C370.907 1607.25 370.338 1604.44 369.202 1601.85C368.065 1599.2 366.486 1596.89 364.465 1594.93C362.508 1592.91 360.203 1591.33 357.55 1590.2C354.961 1589.06 352.151 1588.49 349.119 1588.49H318.901V1701.03H349.119C352.151 1701.03 354.961 1700.46 357.55 1699.32C360.203 1698.19 362.508 1696.64 364.465 1694.68C366.486 1692.73 368.065 1690.45 369.202 1687.86C370.338 1685.21 370.907 1682.37 370.907 1679.34V1610.28Z" fill="black"/>
<path d="M495.853 1712.68V1619.56L495 1625.34L463.456 1712.68H457.015L425.186 1625.34L424.428 1619.56V1712.68H412.208V1576.84H418.555L459.762 1688.24L460.141 1693.26L460.519 1688.24L501.631 1576.84H508.073V1712.68H495.853Z" fill="black"/>
<path d="M590.107 1681.04H547.101L538.196 1712.68H525.503L565.289 1576.84H571.73L611.705 1712.68H599.107L590.107 1681.04ZM550.416 1669.39H586.887L568.983 1606.78L568.604 1601.75L568.225 1606.78L550.416 1669.39Z" fill="black"/>
<path d="M705.581 1679.34C705.581 1683.95 704.697 1688.27 702.928 1692.31C701.223 1696.36 698.855 1699.89 695.824 1702.92C692.792 1705.96 689.224 1708.36 685.12 1710.12C681.078 1711.83 676.752 1712.68 672.142 1712.68H629.135V1576.84H672.142C676.752 1576.84 681.078 1577.73 685.12 1579.49C689.224 1581.2 692.792 1583.57 695.824 1586.6C698.855 1589.63 701.223 1593.2 702.928 1597.3C704.697 1601.34 705.581 1605.67 705.581 1610.28V1679.34ZM693.361 1610.28C693.361 1607.25 692.792 1604.44 691.656 1601.85C690.519 1599.2 688.94 1596.89 686.919 1594.93C684.962 1592.91 682.657 1591.33 680.004 1590.2C677.415 1589.06 674.605 1588.49 671.573 1588.49H641.355V1701.03H671.573C674.605 1701.03 677.415 1700.46 680.004 1699.32C682.657 1698.19 684.962 1696.64 686.919 1694.68C688.94 1692.73 690.519 1690.45 691.656 1687.86C692.792 1685.21 693.361 1682.37 693.361 1679.34V1610.28Z" fill="black"/>
<path d="M734.662 1712.68V1576.84H811.108V1588.49H746.882V1638.98H798.888V1650.63H746.882V1701.03H811.108V1712.68H734.662Z" fill="black"/>
<path d="M955.663 1679.34C955.663 1683.95 954.778 1688.27 953.01 1692.31C951.305 1696.36 948.937 1699.89 945.906 1702.92C942.874 1705.96 939.306 1708.36 935.201 1710.12C931.16 1711.83 926.834 1712.68 922.224 1712.68H879.217V1576.84H922.224C926.834 1576.84 931.16 1577.73 935.201 1579.49C939.306 1581.2 942.874 1583.57 945.906 1586.6C948.937 1589.63 951.305 1593.2 953.01 1597.3C954.778 1601.34 955.663 1605.67 955.663 1610.28V1679.34ZM943.443 1610.28C943.443 1607.25 942.874 1604.44 941.738 1601.85C940.601 1599.2 939.022 1596.89 937.001 1594.93C935.043 1592.91 932.738 1591.33 930.086 1590.2C927.497 1589.06 924.687 1588.49 921.655 1588.49H891.437V1701.03H921.655C924.687 1701.03 927.497 1700.46 930.086 1699.32C932.738 1698.19 935.043 1696.64 937.001 1694.68C939.022 1692.73 940.601 1690.45 941.738 1687.86C942.874 1685.21 943.443 1682.37 943.443 1679.34V1610.28Z" fill="black"/>
<path d="M984.744 1712.68V1576.84H1061.19V1588.49H996.964V1638.98H1048.97V1650.63H996.964V1701.03H1061.19V1712.68H984.744Z" fill="black"/>
<path d="M1159.04 1681.23C1159.04 1685.84 1158.16 1690.17 1156.39 1694.21C1154.69 1698.25 1152.32 1701.79 1149.29 1704.82C1146.26 1707.85 1142.72 1710.25 1138.68 1712.02C1134.64 1713.72 1130.31 1714.58 1125.7 1714.58H1116.04C1111.43 1714.58 1107.07 1713.72 1102.96 1712.02C1098.92 1710.25 1095.39 1707.85 1092.35 1704.82C1089.32 1701.79 1086.92 1698.25 1085.16 1694.21C1083.45 1690.17 1082.6 1685.84 1082.6 1681.23V1608.29C1082.6 1603.68 1083.45 1599.36 1085.16 1595.31C1086.92 1591.27 1089.32 1587.74 1092.35 1584.7C1095.39 1581.67 1098.92 1579.3 1102.96 1577.6C1107.07 1575.83 1111.43 1574.95 1116.04 1574.95H1125.7C1130.31 1574.95 1134.64 1575.83 1138.68 1577.6C1142.72 1579.3 1146.26 1581.67 1149.29 1584.7C1152.32 1587.74 1154.69 1591.27 1156.39 1595.31C1158.16 1599.36 1159.04 1603.68 1159.04 1608.29V1613.79L1146.82 1615.68V1608.29C1146.82 1605.26 1146.26 1602.45 1145.12 1599.86C1143.98 1597.21 1142.43 1594.9 1140.48 1592.95C1138.52 1590.99 1136.21 1589.44 1133.56 1588.3C1130.97 1587.17 1128.16 1586.6 1125.13 1586.6H1116.61C1113.57 1586.6 1110.73 1587.17 1108.08 1588.3C1105.49 1589.44 1103.19 1590.99 1101.16 1592.95C1099.21 1594.9 1097.66 1597.21 1096.52 1599.86C1095.39 1602.45 1094.82 1605.26 1094.82 1608.29V1681.23C1094.82 1684.26 1095.39 1687.1 1096.52 1689.76C1097.66 1692.35 1099.21 1694.65 1101.16 1696.67C1103.19 1698.63 1105.49 1700.18 1108.08 1701.31C1110.73 1702.45 1113.57 1703.02 1116.61 1703.02H1125.13C1128.16 1703.02 1130.97 1702.45 1133.56 1701.31C1136.21 1700.18 1138.52 1698.63 1140.48 1696.67C1142.43 1694.65 1143.98 1692.35 1145.12 1689.76C1146.26 1687.1 1146.82 1684.26 1146.82 1681.23V1673.84L1159.04 1675.83V1681.23Z" fill="black"/>
<path d="M1260.78 1681.23C1260.78 1685.84 1259.9 1690.17 1258.13 1694.21C1256.42 1698.25 1254.06 1701.79 1251.02 1704.82C1247.99 1707.85 1244.46 1710.25 1240.41 1712.02C1236.37 1713.72 1232.05 1714.58 1227.44 1714.58H1217.77C1213.16 1714.58 1208.81 1713.72 1204.7 1712.02C1200.66 1710.25 1197.12 1707.85 1194.09 1704.82C1191.06 1701.79 1188.66 1698.25 1186.89 1694.21C1185.19 1690.17 1184.34 1685.84 1184.34 1681.23V1608.29C1184.34 1603.68 1185.19 1599.36 1186.89 1595.31C1188.66 1591.27 1191.06 1587.74 1194.09 1584.7C1197.12 1581.67 1200.66 1579.3 1204.7 1577.6C1208.81 1575.83 1213.16 1574.95 1217.77 1574.95H1227.44C1232.05 1574.95 1236.37 1575.83 1240.41 1577.6C1244.46 1579.3 1247.99 1581.67 1251.02 1584.7C1254.06 1587.74 1256.42 1591.27 1258.13 1595.31C1259.9 1599.36 1260.78 1603.68 1260.78 1608.29V1681.23ZM1248.56 1608.29C1248.56 1605.26 1247.99 1602.45 1246.86 1599.86C1245.72 1597.21 1244.17 1594.9 1242.21 1592.95C1240.26 1590.99 1237.95 1589.44 1235.3 1588.3C1232.71 1587.17 1229.9 1586.6 1226.87 1586.6H1218.34C1215.31 1586.6 1212.47 1587.17 1209.82 1588.3C1207.23 1589.44 1204.92 1590.99 1202.9 1592.95C1200.94 1594.9 1199.4 1597.21 1198.26 1599.86C1197.12 1602.45 1196.56 1605.26 1196.56 1608.29V1681.23C1196.56 1684.26 1197.12 1687.1 1198.26 1689.76C1199.4 1692.35 1200.94 1694.65 1202.9 1696.67C1204.92 1698.63 1207.23 1700.18 1209.82 1701.31C1212.47 1702.45 1215.31 1703.02 1218.34 1703.02H1226.87C1229.9 1703.02 1232.71 1702.45 1235.3 1701.31C1237.95 1700.18 1240.26 1698.63 1242.21 1696.67C1244.17 1694.65 1245.72 1692.35 1246.86 1689.76C1247.99 1687.1 1248.56 1684.26 1248.56 1681.23V1608.29Z" fill="black"/>
<path d="M1353.8 1712.68L1316.95 1654.71H1300.19V1712.68H1287.97V1576.84H1331.07C1335.68 1576.84 1340.01 1577.73 1344.05 1579.49C1348.09 1581.2 1351.63 1583.57 1354.66 1586.6C1357.69 1589.63 1360.06 1593.2 1361.76 1597.3C1363.53 1601.34 1364.41 1605.67 1364.41 1610.28V1621.27C1364.41 1625.88 1363.53 1630.24 1361.76 1634.34C1360.06 1638.38 1357.69 1641.92 1354.66 1644.95C1351.63 1647.98 1348.09 1650.38 1344.05 1652.15C1340.01 1653.86 1335.68 1654.71 1331.07 1654.71L1367.92 1712.68H1353.8ZM1352.19 1610.28C1352.19 1607.25 1351.63 1604.44 1350.49 1601.85C1349.35 1599.2 1347.8 1596.89 1345.85 1594.93C1343.89 1592.91 1341.58 1591.33 1338.93 1590.2C1336.34 1589.06 1333.53 1588.49 1330.5 1588.49H1300.19V1643.06H1330.5C1333.53 1643.06 1336.34 1642.49 1338.93 1641.35C1341.58 1640.21 1343.89 1638.67 1345.85 1636.71C1347.8 1634.69 1349.35 1632.38 1350.49 1629.79C1351.63 1627.14 1352.19 1624.3 1352.19 1621.27V1610.28Z" fill="black"/>
<path d="M1442.28 1681.04H1399.27L1390.37 1712.68H1377.68L1417.46 1576.84H1423.9L1463.88 1712.68H1451.28L1442.28 1681.04ZM1402.59 1669.39H1439.06L1421.16 1606.78L1420.78 1601.75L1420.4 1606.78L1402.59 1669.39Z" fill="black"/>
<path d="M1508.4 1588.49V1712.68H1496.18V1588.49H1463.78V1576.84H1540.8V1588.49H1508.4Z" fill="black"/>
<path d="M1560.31 1712.68V1576.84H1572.53V1712.68H1560.31Z" fill="black"/>
<path d="M1678.15 1681.23C1678.15 1685.84 1677.27 1690.17 1675.5 1694.21C1673.8 1698.25 1671.43 1701.79 1668.4 1704.82C1665.36 1707.85 1661.83 1710.25 1657.79 1712.02C1653.74 1713.72 1649.42 1714.58 1644.81 1714.58H1635.15C1630.54 1714.58 1626.18 1713.72 1622.07 1712.02C1618.03 1710.25 1614.5 1707.85 1611.46 1704.82C1608.43 1701.79 1606.03 1698.25 1604.26 1694.21C1602.56 1690.17 1601.71 1685.84 1601.71 1681.23V1608.29C1601.71 1603.68 1602.56 1599.36 1604.26 1595.31C1606.03 1591.27 1608.43 1587.74 1611.46 1584.7C1614.5 1581.67 1618.03 1579.3 1622.07 1577.6C1626.18 1575.83 1630.54 1574.95 1635.15 1574.95H1644.81C1649.42 1574.95 1653.74 1575.83 1657.79 1577.6C1661.83 1579.3 1665.36 1581.67 1668.4 1584.7C1671.43 1587.74 1673.8 1591.27 1675.5 1595.31C1677.27 1599.36 1678.15 1603.68 1678.15 1608.29V1681.23ZM1665.93 1608.29C1665.93 1605.26 1665.36 1602.45 1664.23 1599.86C1663.09 1597.21 1661.54 1594.9 1659.59 1592.95C1657.63 1590.99 1655.32 1589.44 1652.67 1588.3C1650.08 1587.17 1647.27 1586.6 1644.24 1586.6H1635.71C1632.68 1586.6 1629.84 1587.17 1627.19 1588.3C1624.6 1589.44 1622.29 1590.99 1620.27 1592.95C1618.32 1594.9 1616.77 1597.21 1615.63 1599.86C1614.5 1602.45 1613.93 1605.26 1613.93 1608.29V1681.23C1613.93 1684.26 1614.5 1687.1 1615.63 1689.76C1616.77 1692.35 1618.32 1694.65 1620.27 1696.67C1622.29 1698.63 1624.6 1700.18 1627.19 1701.31C1629.84 1702.45 1632.68 1703.02 1635.71 1703.02H1644.24C1647.27 1703.02 1650.08 1702.45 1652.67 1701.31C1655.32 1700.18 1657.63 1698.63 1659.59 1696.67C1661.54 1694.65 1663.09 1692.35 1664.23 1689.76C1665.36 1687.1 1665.93 1684.26 1665.93 1681.23V1608.29Z" fill="black"/>
<path d="M1777.33 1712.68L1720.69 1613.79L1719.55 1607.91V1712.68H1707.33V1576.84H1713.68L1770.32 1675.83L1771.55 1681.61V1576.84H1783.77V1712.68H1777.33Z" fill="black"/>
<path d="M1857.66 1712.68V1576.84H1869.88V1701.03H1921.89V1712.68H1857.66Z" fill="black"/>
<path d="M1992.27 1681.04H1949.26L1940.36 1712.68H1927.67L1967.45 1576.84H1973.89L2013.87 1712.68H2001.27L1992.27 1681.04ZM1952.58 1669.39H1989.05L1971.15 1606.78L1970.77 1601.75L1970.39 1606.78L1952.58 1669.39Z" fill="black"/>
<path d="M2114.94 1712.68V1619.56L2114.09 1625.34L2082.55 1712.68H2076.1L2044.28 1625.34L2043.52 1619.56V1712.68H2031.3V1576.84H2037.65L2078.85 1688.24L2079.23 1693.26L2079.61 1688.24L2120.72 1576.84H2127.16V1712.68H2114.94Z" fill="black"/>
<path d="M2234.68 1627.14C2234.68 1631.75 2233.8 1636.08 2232.03 1640.12C2230.32 1644.16 2227.95 1647.7 2224.92 1650.73C2221.89 1653.76 2218.32 1656.16 2214.22 1657.93C2210.18 1659.63 2205.85 1660.49 2201.24 1660.49H2170.45V1712.68H2158.23V1576.84H2201.24C2205.85 1576.84 2210.18 1577.73 2214.22 1579.49C2218.32 1581.2 2221.89 1583.57 2224.92 1586.6C2227.95 1589.63 2230.32 1593.2 2232.03 1597.3C2233.8 1601.34 2234.68 1605.67 2234.68 1610.28V1627.14ZM2222.46 1610.28C2222.46 1607.25 2221.89 1604.44 2220.75 1601.85C2219.62 1599.2 2218.04 1596.89 2216.02 1594.93C2214.06 1592.91 2211.76 1591.33 2209.1 1590.2C2206.51 1589.06 2203.7 1588.49 2200.67 1588.49H2170.45V1648.83H2200.67C2203.7 1648.83 2206.51 1648.27 2209.1 1647.13C2211.76 1645.99 2214.06 1644.45 2216.02 1642.49C2218.04 1640.53 2219.62 1638.26 2220.75 1635.67C2221.89 1633.02 2222.46 1630.17 2222.46 1627.14V1610.28Z" fill="black"/>
<path d="M2332.53 1681.23C2332.53 1685.84 2331.59 1690.17 2329.69 1694.21C2327.86 1698.25 2325.37 1701.79 2322.21 1704.82C2319.11 1707.85 2315.48 1710.25 2311.31 1712.02C2307.21 1713.72 2302.85 1714.58 2298.24 1714.58H2288.49C2283.88 1714.58 2279.49 1713.72 2275.32 1712.02C2271.21 1710.25 2267.58 1707.85 2264.42 1704.82C2261.33 1701.79 2258.84 1698.25 2256.94 1694.21C2255.11 1690.17 2254.19 1685.84 2254.19 1681.23V1675.83L2266.41 1673.84V1681.23C2266.41 1684.26 2267.01 1687.1 2268.21 1689.76C2269.48 1692.35 2271.15 1694.65 2273.23 1696.67C2275.32 1698.63 2277.72 1700.18 2280.43 1701.31C2283.21 1702.45 2286.12 1703.02 2289.15 1703.02H2297.67C2300.7 1703.02 2303.58 1702.45 2306.29 1701.31C2309.01 1700.18 2311.41 1698.63 2313.49 1696.67C2315.58 1694.65 2317.22 1692.35 2318.42 1689.76C2319.68 1687.1 2320.31 1684.26 2320.31 1681.23V1677.16C2320.31 1672.49 2319.4 1668.6 2317.57 1665.51C2315.74 1662.41 2313.3 1659.79 2310.27 1657.64C2307.24 1655.43 2303.8 1653.57 2299.95 1652.06C2296.16 1650.54 2292.24 1649.02 2288.2 1647.51C2284.16 1645.99 2280.21 1644.32 2276.36 1642.49C2272.57 1640.66 2269.16 1638.38 2266.13 1635.67C2263.1 1632.89 2260.67 1629.51 2258.84 1625.53C2257 1621.55 2256.09 1616.66 2256.09 1610.85V1608.29C2256.09 1603.68 2256.94 1599.36 2258.65 1595.31C2260.41 1591.27 2262.81 1587.74 2265.84 1584.7C2268.88 1581.67 2272.41 1579.3 2276.45 1577.6C2280.56 1575.83 2284.92 1574.95 2289.53 1574.95H2298.24C2302.85 1574.95 2307.18 1575.83 2311.22 1577.6C2315.26 1579.3 2318.8 1581.67 2321.83 1584.7C2324.86 1587.74 2327.23 1591.27 2328.93 1595.31C2330.7 1599.36 2331.59 1603.68 2331.59 1608.29V1611.8L2319.37 1613.79V1608.29C2319.37 1605.26 2318.8 1602.45 2317.66 1599.86C2316.52 1597.21 2314.98 1594.9 2313.02 1592.95C2311.06 1590.99 2308.76 1589.44 2306.1 1588.3C2303.52 1587.17 2300.7 1586.6 2297.67 1586.6H2290.1C2287.06 1586.6 2284.22 1587.17 2281.57 1588.3C2278.98 1589.44 2276.68 1590.99 2274.65 1592.95C2272.7 1594.9 2271.15 1597.21 2270.01 1599.86C2268.88 1602.45 2268.31 1605.26 2268.31 1608.29V1610.85C2268.31 1615.21 2269.22 1618.87 2271.06 1621.84C2272.89 1624.81 2275.32 1627.36 2278.35 1629.51C2281.38 1631.59 2284.79 1633.43 2288.58 1635C2292.43 1636.52 2296.38 1638.1 2300.42 1639.74C2304.46 1641.32 2308.38 1643.09 2312.17 1645.05C2316.02 1646.94 2319.46 1649.31 2322.49 1652.15C2325.52 1654.93 2327.95 1658.34 2329.79 1662.38C2331.62 1666.42 2332.53 1671.35 2332.53 1677.16V1681.23Z" fill="black"/>
<rect x="1.78516" y="1427.77" width="2329.38" height="46.7804" fill="#D9D9D9"/>
<path d="M308.271 684.18H292.696L264.203 640.491C252.3 656.194 237.864 668.73 220.895 678.101C203.926 687.219 185.058 691.778 164.29 691.778H135.798C117.309 691.778 99.8339 688.359 83.3716 681.52C67.1626 674.429 52.9798 664.805 40.823 652.648C28.6663 640.491 19.0422 626.309 11.9508 610.1C5.1126 593.891 1.69352 576.542 1.69352 558.053V265.532C1.69352 247.044 5.1126 229.695 11.9508 213.486C19.0422 197.277 28.6663 183.094 40.823 170.937C52.9798 158.781 67.1626 149.283 83.3716 142.445C99.8339 135.353 117.309 131.808 135.798 131.808H174.547C193.036 131.808 210.384 135.353 226.593 142.445C242.802 149.283 256.985 158.781 269.142 170.937C281.299 183.094 290.796 197.277 297.634 213.486C304.726 229.695 308.271 247.044 308.271 265.532V287.566L259.264 295.164V265.532C259.264 253.375 256.985 242.105 252.426 231.721C247.868 221.084 241.663 211.84 233.811 203.988C225.96 196.137 216.716 189.932 206.079 185.373C195.695 180.815 184.425 178.535 172.268 178.535H138.077C125.92 178.535 114.523 180.815 103.886 185.373C93.5022 189.932 84.2581 196.137 76.1536 203.988C68.3023 211.84 62.0973 221.084 57.5386 231.721C52.9798 242.105 50.7004 253.375 50.7004 265.532V558.053C50.7004 570.21 52.9798 581.607 57.5386 592.244C62.0973 602.628 68.3023 611.872 76.1536 619.977C84.2581 627.828 93.5022 634.033 103.886 638.592C114.523 643.151 125.92 645.43 138.077 645.43H172.268C184.425 645.43 195.695 643.151 206.079 638.592C216.716 634.033 225.96 627.828 233.811 619.977C241.663 611.872 247.868 602.628 252.426 592.244C256.985 581.607 259.264 570.21 259.264 558.053V444.464H172.268V397.736H308.271V684.18Z" fill="black"/>
<path d="M1501.02 558.053C1501.02 576.542 1497.48 593.89 1490.39 610.099C1483.55 626.308 1474.05 640.491 1461.89 652.648C1449.74 664.805 1435.55 674.429 1419.34 681.52C1403.14 688.358 1385.79 691.778 1367.3 691.778H1328.55C1310.06 691.778 1292.58 688.358 1276.12 681.52C1259.91 674.429 1245.73 664.805 1233.57 652.648C1221.42 640.491 1211.79 626.308 1204.7 610.099C1197.86 593.89 1194.44 576.542 1194.44 558.053V139.406H1243.45V558.053C1243.45 570.21 1245.73 581.607 1250.29 592.244C1254.85 602.628 1261.05 611.872 1268.9 619.977C1277.01 627.828 1286.25 634.033 1296.64 638.592C1307.27 643.151 1318.67 645.43 1330.83 645.43H1365.02C1377.18 645.43 1388.45 643.151 1398.83 638.592C1409.47 634.033 1418.71 627.828 1426.56 619.977C1434.41 611.872 1440.62 602.628 1445.18 592.244C1449.74 581.607 1452.02 570.21 1452.02 558.053V139.406H1501.02V558.053Z" fill="black"/>
<path d="M1874.08 684.18L1726.3 451.682H1659.06V684.18H1610.05V139.406H1782.91C1801.4 139.406 1818.74 142.951 1834.95 150.043C1851.16 156.881 1865.34 166.378 1877.5 178.535C1889.66 190.692 1899.16 205.001 1905.99 221.464C1913.09 237.673 1916.63 255.021 1916.63 273.51V317.578C1916.63 336.066 1913.09 353.542 1905.99 370.004C1899.16 386.213 1889.66 400.396 1877.5 412.552C1865.34 424.709 1851.16 434.333 1834.95 441.425C1818.74 448.263 1801.4 451.682 1782.91 451.682L1930.69 684.18H1874.08ZM1867.62 273.51C1867.62 261.353 1865.34 250.083 1860.79 239.699C1856.23 229.062 1850.02 219.817 1842.17 211.966C1834.32 203.862 1825.08 197.53 1814.44 192.971C1804.05 188.412 1792.78 186.133 1780.63 186.133H1659.06V404.954H1780.63C1792.78 404.954 1804.05 402.675 1814.44 398.116C1825.08 393.557 1834.32 387.352 1842.17 379.501C1850.02 371.397 1856.23 362.153 1860.79 351.769C1865.34 341.131 1867.62 329.735 1867.62 317.578V273.51Z" fill="black"/>
<path d="M2331.1 550.455C2331.1 568.944 2327.55 586.292 2320.46 602.501C2313.62 618.71 2304.13 632.893 2291.97 645.05C2279.81 657.207 2265.5 666.831 2249.04 673.922C2232.83 680.76 2215.48 684.18 2197 684.18H2024.52V139.406H2197C2215.48 139.406 2232.83 142.951 2249.04 150.043C2265.5 156.881 2279.81 166.378 2291.97 178.535C2304.13 190.692 2313.62 205.001 2320.46 221.464C2327.55 237.673 2331.1 255.021 2331.1 273.51V550.455ZM2282.09 273.51C2282.09 261.353 2279.81 250.083 2275.25 239.699C2270.7 229.062 2264.36 219.817 2256.26 211.966C2248.41 203.862 2239.16 197.53 2228.53 192.971C2218.14 188.412 2206.87 186.133 2194.72 186.133H2073.53V637.452H2194.72C2206.87 637.452 2218.14 635.173 2228.53 630.614C2239.16 626.055 2248.41 619.85 2256.26 611.999C2264.36 604.148 2270.7 595.03 2275.25 584.646C2279.81 574.009 2282.09 562.612 2282.09 550.455V273.51Z" fill="black"/>
<path d="M309.931 1199.25C309.931 1217.45 306.192 1234.52 298.714 1250.48C291.485 1266.43 281.639 1280.39 269.176 1292.35C256.961 1304.32 242.629 1313.79 226.177 1320.77C209.974 1327.5 192.775 1330.87 174.578 1330.87H136.066C117.87 1330.87 100.546 1327.5 84.094 1320.77C67.8916 1313.79 53.5587 1304.32 41.0953 1292.35C28.8812 1280.39 19.0351 1266.43 11.557 1250.48C4.32825 1234.52 0.713867 1217.45 0.713867 1199.25V1177.94L48.9472 1170.09V1199.25C48.9472 1211.22 51.3153 1222.43 56.0514 1232.9C61.0367 1243.12 67.6423 1252.22 75.8682 1260.2C84.094 1267.93 93.5662 1274.03 104.285 1278.52C115.253 1283.01 126.719 1285.25 138.684 1285.25H172.335C184.3 1285.25 195.641 1283.01 206.36 1278.52C217.079 1274.03 226.551 1267.93 234.777 1260.2C243.002 1252.22 249.483 1243.12 254.219 1232.9C259.205 1222.43 261.698 1211.22 261.698 1199.25V1183.17C261.698 1164.73 258.083 1149.4 250.854 1137.18C243.626 1124.97 234.029 1114.63 222.064 1106.15C210.099 1097.43 196.514 1090.07 181.309 1084.09C166.352 1078.11 150.898 1072.13 134.945 1066.14C118.992 1060.16 103.412 1053.56 88.207 1046.33C73.2509 1039.1 59.7904 1030.12 47.8255 1019.41C35.8607 1008.44 26.2638 995.102 19.0351 979.398C11.8063 963.694 8.19191 944.376 8.19191 921.443V911.348C8.19191 893.151 11.557 876.076 18.2873 860.123C25.2668 844.17 34.739 830.211 46.7038 818.246C58.6687 806.281 72.6277 796.934 88.5809 790.204C104.783 783.224 121.983 779.734 140.179 779.734H174.578C192.775 779.734 209.85 783.224 225.803 790.204C241.756 796.934 255.715 806.281 267.68 818.246C279.645 830.211 288.992 844.17 295.723 860.123C302.702 876.076 306.192 893.151 306.192 911.348V925.182L257.958 933.034V911.348C257.958 899.383 255.715 888.291 251.228 878.071C246.741 867.601 240.634 858.503 232.907 850.776C225.18 843.048 216.081 836.941 205.612 832.455C195.392 827.968 184.3 825.724 172.335 825.724H142.423C130.458 825.724 119.241 827.968 108.772 832.455C98.5516 836.941 89.4533 843.048 81.4767 850.776C73.7494 858.503 67.6423 867.601 63.1555 878.071C58.6687 888.291 56.4253 899.383 56.4253 911.348V921.443C56.4253 938.643 60.0397 953.1 67.2684 964.816C74.4972 976.531 84.094 986.627 96.0589 995.102C108.024 1003.33 121.484 1010.56 136.44 1016.79C151.646 1022.77 167.225 1029 183.178 1035.48C199.131 1041.72 214.586 1048.69 229.542 1056.42C244.747 1063.9 258.332 1073.25 270.297 1084.46C282.262 1095.43 291.859 1108.89 299.088 1124.85C306.317 1140.8 309.931 1160.24 309.931 1183.17V1199.25Z" fill="black"/>
<path d="M667.381 1323.39V1078.48H462.109V1323.39H413.876V787.212H462.109V1032.49H667.381V787.212H715.615V1323.39H667.381Z" fill="black"/>
<path d="M1039.79 1198.5H870.036L834.889 1323.39H784.787L941.825 787.212H967.251L1125.04 1323.39H1075.31L1039.79 1198.5ZM883.123 1152.51H1027.08L956.408 905.365L954.912 885.549L953.416 905.365L883.123 1152.51Z" fill="black"/>
<path d="M1495.57 1191.77C1495.57 1209.97 1492.08 1227.05 1485.11 1243C1478.37 1258.95 1469.03 1272.91 1457.06 1284.88C1445.1 1296.84 1431.01 1306.31 1414.81 1313.29C1398.86 1320.02 1381.78 1323.39 1363.59 1323.39H1193.84V787.212H1363.59C1381.78 787.212 1398.86 790.702 1414.81 797.682C1431.01 804.412 1445.1 813.759 1457.06 825.724C1469.03 837.689 1478.37 851.773 1485.11 867.975C1492.08 883.928 1495.57 901.003 1495.57 919.2V1191.77ZM1447.34 919.2C1447.34 907.235 1445.1 896.143 1440.61 885.923C1436.12 875.453 1429.89 866.355 1421.92 858.628C1414.19 850.651 1405.09 844.419 1394.62 839.933C1384.4 835.446 1373.31 833.202 1361.34 833.202H1242.07V1277.4H1361.34C1373.31 1277.4 1384.4 1275.15 1394.62 1270.67C1405.09 1266.18 1414.19 1260.07 1421.92 1252.35C1429.89 1244.62 1436.12 1235.65 1440.61 1225.43C1445.1 1214.96 1447.34 1203.74 1447.34 1191.77V919.2Z" fill="black"/>
<path d="M1610.36 1323.39V787.212H1912.1V833.202H1658.6V1032.49H1863.87V1078.48H1658.6V1277.4H1912.1V1323.39H1610.36Z" fill="black"/>
<path d="M2298.34 1199.25C2298.34 1217.45 2294.6 1234.52 2287.12 1250.48C2279.9 1266.43 2270.05 1280.39 2257.59 1292.35C2245.37 1304.32 2231.04 1313.79 2214.59 1320.77C2198.39 1327.5 2181.19 1330.87 2162.99 1330.87H2124.48C2106.28 1330.87 2088.96 1327.5 2072.51 1320.77C2056.3 1313.79 2041.97 1304.32 2029.51 1292.35C2017.29 1280.39 2007.45 1266.43 1999.97 1250.48C1992.74 1234.52 1989.13 1217.45 1989.13 1199.25V1177.94L2037.36 1170.09V1199.25C2037.36 1211.22 2039.73 1222.43 2044.46 1232.9C2049.45 1243.12 2056.05 1252.22 2064.28 1260.2C2072.51 1267.93 2081.98 1274.03 2092.7 1278.52C2103.66 1283.01 2115.13 1285.25 2127.09 1285.25H2160.75C2172.71 1285.25 2184.05 1283.01 2194.77 1278.52C2205.49 1274.03 2214.96 1267.93 2223.19 1260.2C2231.41 1252.22 2237.89 1243.12 2242.63 1232.9C2247.62 1222.43 2250.11 1211.22 2250.11 1199.25V1183.17C2250.11 1164.73 2246.49 1149.4 2239.27 1137.18C2232.04 1124.97 2222.44 1114.63 2210.48 1106.15C2198.51 1097.43 2184.93 1090.07 2169.72 1084.09C2154.76 1078.11 2139.31 1072.13 2123.36 1066.14C2107.4 1060.16 2091.82 1053.56 2076.62 1046.33C2061.66 1039.1 2048.2 1030.12 2036.24 1019.41C2024.27 1008.44 2014.68 995.102 2007.45 979.398C2000.22 963.694 1996.6 944.376 1996.6 921.443V911.348C1996.6 893.151 1999.97 876.076 2006.7 860.123C2013.68 844.17 2023.15 830.211 2035.12 818.246C2047.08 806.281 2061.04 796.934 2076.99 790.204C2093.19 783.224 2110.39 779.734 2128.59 779.734H2162.99C2181.19 779.734 2198.26 783.224 2214.21 790.204C2230.17 796.934 2244.13 806.281 2256.09 818.246C2268.06 830.211 2277.4 844.17 2284.13 860.123C2291.11 876.076 2294.6 893.151 2294.6 911.348V925.182L2246.37 933.034V911.348C2246.37 899.383 2244.13 888.291 2239.64 878.071C2235.15 867.601 2229.05 858.503 2221.32 850.776C2213.59 843.048 2204.49 836.941 2194.02 832.455C2183.8 827.968 2172.71 825.724 2160.75 825.724H2130.83C2118.87 825.724 2107.65 827.968 2097.18 832.455C2086.96 836.941 2077.86 843.048 2069.89 850.776C2062.16 858.503 2056.05 867.601 2051.57 878.071C2047.08 888.291 2044.84 899.383 2044.84 911.348V921.443C2044.84 938.643 2048.45 953.1 2055.68 964.816C2062.91 976.531 2072.51 986.627 2084.47 995.102C2096.44 1003.33 2109.9 1010.56 2124.85 1016.79C2140.06 1022.77 2155.64 1029 2171.59 1035.48C2187.54 1041.72 2203 1048.69 2217.95 1056.42C2233.16 1063.9 2246.74 1073.25 2258.71 1084.46C2270.67 1095.43 2280.27 1108.89 2287.5 1124.85C2294.73 1140.8 2298.34 1160.24 2298.34 1183.17V1199.25Z" fill="black"/>
<path d="M709.093 96.5881C721.517 93.2835 728.572 79.2579 724.849 65.2612C721.126 51.2645 708.036 42.5969 695.611 45.9015C683.187 49.2062 676.132 63.2317 679.855 77.2284C683.578 91.2251 696.668 99.8928 709.093 96.5881Z" fill="black"/>
<path d="M762.798 93.9634C768.362 103.558 766.315 115.138 758.227 119.828C750.139 124.519 739.072 120.543 733.508 110.949C727.944 101.355 729.99 89.7749 738.079 85.0844C746.167 80.3939 757.234 84.3692 762.798 93.9634Z" fill="black"/>
<path d="M691.11 141.236C677.087 148.707 662.108 147.985 657.654 139.623C653.2 131.262 660.957 118.428 674.98 110.958C689.003 103.488 703.982 104.21 708.436 112.571C712.89 120.932 705.133 133.766 691.11 141.236Z" fill="black"/>
<path d="M731.124 609.14C730.592 602.407 723.649 597.462 715.614 598.096C707.58 598.73 701.498 604.702 702.029 611.436C702.56 618.169 709.504 623.113 717.538 622.479C725.572 621.845 731.655 615.873 731.124 609.14Z" fill="black"/>
<path d="M756.622 608.032C767.108 607.205 776.078 612.489 776.658 619.835C777.238 627.181 769.207 633.807 758.72 634.634C748.234 635.461 739.263 630.177 738.684 622.831C738.104 615.485 746.135 608.86 756.622 608.032Z" fill="black"/>
<path d="M781.793 655.379C781.776 648.01 773.235 642.057 762.716 642.081C752.197 642.106 743.684 648.1 743.701 655.468C743.719 662.837 752.26 668.79 762.779 668.766C773.297 668.741 781.811 662.747 781.793 655.379Z" fill="black"/>
<path d="M724.184 634.024C733.106 635.089 739.734 641.02 738.988 647.27C738.242 653.52 730.404 657.723 721.482 656.658C712.56 655.593 705.932 649.663 706.678 643.413C707.424 637.163 715.262 632.959 724.184 634.024Z" fill="black"/>
<path d="M743.241 679.04C744.832 672.95 739.075 666.172 730.381 663.9C721.687 661.629 713.35 664.725 711.759 670.815C710.167 676.905 715.925 683.683 724.619 685.955C733.312 688.226 741.65 685.13 743.241 679.04Z" fill="black"/>
<path d="M766.263 676.897C774.819 676.86 781.775 681.092 781.798 686.351C781.821 691.61 774.904 695.904 766.347 695.942C757.791 695.979 750.836 691.747 750.813 686.488C750.789 681.229 757.707 676.935 766.263 676.897Z" fill="black"/>
<path d="M497.582 557.266C488.594 563.37 490.553 581.93 501.957 598.72C513.36 615.511 529.891 624.174 538.879 618.07C547.867 611.966 545.908 593.406 534.504 576.615C523.1 559.824 506.57 551.161 497.582 557.266Z" fill="black"/>
<path d="M854.334 480.396C854.582 474.854 850.457 470.168 845.119 469.929C839.782 469.689 835.254 473.988 835.005 479.53C834.757 485.071 838.882 489.758 844.22 489.997C849.557 490.236 854.085 485.938 854.334 480.396Z" fill="black"/>
<path d="M870.681 457.858C876.018 458.097 880.144 462.784 879.895 468.325C879.647 473.867 875.119 478.166 869.781 477.926C864.444 477.687 860.319 473.001 860.567 467.459C860.815 461.917 865.344 457.619 870.681 457.858Z" fill="black"/>
<path d="M905.102 454.124C905.35 448.583 901.225 443.896 895.888 443.657C890.55 443.418 886.022 447.716 885.774 453.258C885.525 458.8 889.651 463.486 894.988 463.725C900.325 463.965 904.854 459.666 905.102 454.124Z" fill="black"/>
<path d="M916.124 423.421C921.461 423.66 925.587 428.346 925.338 433.888C925.09 439.43 920.562 443.728 915.224 443.489C909.887 443.25 905.762 438.563 906.01 433.022C906.258 427.48 910.787 423.181 916.124 423.421Z" fill="black"/>
<path d="M900.132 485.011C900.38 479.47 896.255 474.783 890.917 474.544C885.58 474.305 881.052 478.603 880.803 484.145C880.555 489.687 884.68 494.373 890.018 494.612C895.355 494.852 899.883 490.553 900.132 485.011Z" fill="black"/>
<path d="M868.196 488.745C873.533 488.984 877.659 493.67 877.41 499.212C877.162 504.754 872.634 509.052 867.296 508.813C861.959 508.574 857.833 503.888 858.082 498.346C858.33 492.804 862.858 488.506 868.196 488.745Z" fill="black"/>
<path d="M873.505 524.064C873.753 518.522 869.628 513.836 864.291 513.596C858.953 513.357 854.425 517.656 854.177 523.197C853.928 528.739 858.054 533.426 863.391 533.665C868.728 533.904 873.257 529.606 873.505 524.064Z" fill="black"/>
<path d="M838.374 523.892C843.711 524.131 847.837 528.818 847.588 534.359C847.34 539.901 842.812 544.2 837.474 543.96C832.137 543.721 828.012 539.035 828.26 533.493C828.508 527.951 833.037 523.653 838.374 523.892Z" fill="black"/>
<path d="M851.139 508.798C851.387 503.256 847.262 498.57 841.924 498.33C836.587 498.091 832.059 502.39 831.81 507.931C831.562 513.473 835.687 518.16 841.025 518.399C846.362 518.638 850.89 514.34 851.139 508.798Z" fill="black"/>
<path d="M806.424 218.722C813.6 219.043 819.246 223.138 819.034 227.867C818.822 232.596 812.833 236.169 805.656 235.847C798.48 235.526 792.835 231.431 793.047 226.702C793.259 221.973 799.248 218.4 806.424 218.722Z" fill="black"/>
<path d="M771.198 219.787C778.374 220.109 784.02 224.203 783.808 228.932C783.596 233.661 777.607 237.234 770.431 236.912C763.255 236.591 757.609 232.496 757.821 227.767C758.033 223.038 764.022 219.465 771.198 219.787Z" fill="black"/>
<path d="M710.568 242.863C717.744 243.185 723.39 247.279 723.178 252.008C722.966 256.738 716.976 260.31 709.8 259.989C702.624 259.667 696.979 255.573 697.191 250.844C697.403 246.115 703.392 242.542 710.568 242.863Z" fill="black"/>
<path d="M748.029 265.144C748.241 260.415 742.596 256.321 735.42 255.999C728.243 255.677 722.254 259.25 722.042 263.979C721.83 268.709 727.476 272.803 734.652 273.125C741.828 273.446 747.817 269.873 748.029 265.144Z" fill="black"/>
<path d="M762.046 268.425C769.222 268.747 774.868 272.841 774.656 277.57C774.444 282.299 768.455 285.872 761.279 285.55C754.103 285.229 748.457 281.134 748.669 276.405C748.881 271.676 754.87 268.103 762.046 268.425Z" fill="black"/>
<path d="M804.478 293.546C804.69 288.817 799.044 284.723 791.868 284.401C784.692 284.079 778.703 287.652 778.491 292.381C778.279 297.11 783.924 301.205 791.101 301.526C798.277 301.848 804.266 298.275 804.478 293.546Z" fill="black"/>
<path d="M795.418 261.325C802.594 261.646 808.24 265.741 808.028 270.47C807.816 275.199 801.827 278.772 794.651 278.45C787.475 278.128 781.829 274.034 782.041 269.305C782.253 264.576 788.242 261.003 795.418 261.325Z" fill="black"/>
<path d="M805.188 247.393C805.4 242.664 799.754 238.57 792.578 238.248C785.402 237.926 779.413 241.499 779.201 246.228C778.989 250.957 784.634 255.052 791.811 255.373C798.987 255.695 804.976 252.122 805.188 247.393Z" fill="black"/>
<path d="M853.826 243.843C854.038 239.114 848.392 235.019 841.216 234.698C834.04 234.376 828.051 237.949 827.839 242.678C827.627 247.407 833.273 251.502 840.449 251.823C847.625 252.145 853.614 248.572 853.826 243.843Z" fill="black"/>
<path d="M827.725 253.514C834.902 253.836 840.547 257.93 840.335 262.659C840.123 267.388 834.134 270.961 826.958 270.639C819.782 270.318 814.136 266.223 814.348 261.494C814.56 256.765 820.549 253.192 827.725 253.514Z" fill="black"/>
<path d="M836.43 288.931C836.642 284.202 830.996 280.107 823.82 279.786C816.644 279.464 810.655 283.037 810.443 287.766C810.231 292.495 815.876 296.589 823.053 296.911C830.229 297.233 836.218 293.66 836.43 288.931Z" fill="black"/>
<path d="M813.471 305.956C820.65 305.69 826.639 310.088 826.85 315.778C827.06 321.468 821.412 326.296 814.233 326.561C807.055 326.827 801.065 322.429 800.854 316.739C800.644 311.049 806.293 306.221 813.471 305.956Z" fill="black"/>
<path d="M796.318 316.843C796.107 311.153 790.118 306.755 782.939 307.021C775.761 307.286 770.112 312.114 770.323 317.804C770.533 323.494 776.523 327.892 783.701 327.626C790.88 327.361 796.528 322.533 796.318 316.843Z" fill="black"/>
<path d="M752.052 292.11C759.231 291.844 765.22 296.242 765.431 301.932C765.641 307.622 759.993 312.45 752.814 312.715C745.636 312.981 739.646 308.583 739.436 302.893C739.225 297.203 744.874 292.375 752.052 292.11Z" fill="black"/>
<path d="M723.893 308.677C723.683 302.987 717.693 298.59 710.515 298.855C703.336 299.121 697.687 303.949 697.898 309.639C698.108 315.329 704.098 319.726 711.277 319.461C718.455 319.195 724.104 314.367 723.893 308.677Z" fill="black"/>
<path d="M679.609 292.275C686.581 290.546 693.344 293.624 694.715 299.151C696.085 304.677 691.544 310.559 684.572 312.288C677.6 314.017 670.837 310.938 669.466 305.412C668.096 299.885 672.637 294.004 679.609 292.275Z" fill="black"/>
<path d="M695.072 332.71C693.676 327.08 687.3 323.817 680.83 325.421C674.36 327.026 670.247 332.89 671.643 338.52C673.039 344.15 679.416 347.413 685.886 345.809C692.355 344.205 696.468 338.34 695.072 332.71Z" fill="black"/>
<path d="M717.281 325.125C723.939 324.799 729.566 329.231 729.85 335.024C730.134 340.818 724.967 345.779 718.309 346.105C711.651 346.431 706.024 341.999 705.74 336.206C705.456 330.412 710.623 325.451 717.281 325.125Z" fill="black"/>
<path d="M758.708 329.456C758.424 323.662 752.797 319.23 746.139 319.557C739.481 319.883 734.314 324.844 734.598 330.637C734.882 336.431 740.509 340.863 747.167 340.537C753.825 340.211 758.992 335.25 758.708 329.456Z" fill="black"/>
<path d="M768.821 337.062C775.883 336.715 781.853 341.417 782.154 347.563C782.455 353.708 776.974 358.971 769.911 359.317C762.849 359.663 756.88 354.962 756.578 348.816C756.277 342.67 761.758 337.408 768.821 337.062Z" fill="black"/>
<path d="M814.459 347.417C815.146 341.302 810.007 335.705 802.981 334.915C795.954 334.125 789.7 338.441 789.013 344.556C788.325 350.67 793.464 356.268 800.491 357.058C807.518 357.848 813.771 353.531 814.459 347.417Z" fill="black"/>
<path d="M794.828 366.091C802.259 366.927 807.633 373.397 806.829 380.543C806.026 387.689 799.35 392.805 791.918 391.97C784.487 391.134 779.113 384.664 779.917 377.517C780.72 370.371 787.396 365.255 794.828 366.091Z" fill="black"/>
<path d="M772.392 379.309C773.195 372.163 767.822 365.692 760.391 364.857C752.959 364.021 746.283 369.137 745.48 376.283C744.676 383.429 750.049 389.9 757.481 390.735C764.913 391.571 771.588 386.455 772.392 379.309Z" fill="black"/>
<path d="M732.545 346.34C740.008 345.864 746.43 351.296 746.888 358.473C747.346 365.649 741.667 371.853 734.203 372.329C726.74 372.805 720.319 367.374 719.861 360.197C719.403 353.02 725.082 346.817 732.545 346.34Z" fill="black"/>
<path d="M711.172 363.202C710.714 356.026 704.293 350.594 696.829 351.07C689.366 351.546 683.687 357.75 684.145 364.927C684.603 372.103 691.024 377.535 698.488 377.059C705.951 376.583 711.63 370.379 711.172 363.202Z" fill="black"/>
<path d="M718.486 376.987C725.949 376.511 732.37 381.942 732.828 389.119C733.286 396.296 727.607 402.499 720.144 402.976C712.681 403.452 706.259 398.02 705.801 390.843C705.344 383.667 711.023 377.463 718.486 376.987Z" fill="black"/>
<path d="M760.165 405.095C759.707 397.918 753.286 392.487 745.823 392.963C738.359 393.439 732.68 399.643 733.138 406.819C733.596 413.996 740.018 419.428 747.481 418.952C754.944 418.475 760.623 412.272 760.165 405.095Z" fill="black"/>
<path d="M779.905 402.548C787.368 402.072 793.789 407.504 794.247 414.681C794.705 421.857 789.026 428.061 781.563 428.537C774.1 429.014 767.678 423.582 767.22 416.405C766.763 409.228 772.441 403.025 779.905 402.548Z" fill="black"/>
<path d="M734.893 285.381C735.105 280.652 729.46 276.557 722.284 276.235C715.108 275.914 709.118 279.487 708.906 284.216C708.694 288.945 714.34 293.039 721.516 293.361C728.692 293.683 734.681 290.11 734.893 285.381Z" fill="black"/>
<path d="M696.012 267.005C703.188 267.327 708.834 271.421 708.622 276.15C708.41 280.879 702.42 284.452 695.244 284.13C688.068 283.809 682.423 279.714 682.635 274.985C682.847 270.256 688.836 266.683 696.012 267.005Z" fill="black"/>
<path d="M748.739 234.612C748.951 229.883 743.306 225.789 736.13 225.467C728.953 225.146 722.964 228.718 722.752 233.448C722.54 238.177 728.186 242.271 735.362 242.593C742.538 242.914 748.527 239.341 748.739 234.612Z" fill="black"/>
<path d="M757.786 241.443C764.962 241.765 770.608 245.859 770.396 250.588C770.184 255.317 764.194 258.89 757.018 258.569C749.842 258.247 744.197 254.153 744.409 249.424C744.621 244.694 750.61 241.122 757.786 241.443Z" fill="black"/>
<path d="M861.6 378.296C867.32 369.254 876.419 364.746 881.923 368.228C887.427 371.71 887.251 381.863 881.53 390.905C875.81 399.947 866.711 404.455 861.207 400.973C855.703 397.491 855.879 387.338 861.6 378.296Z" fill="black"/>
<path d="M894.334 330.001C887.553 329.004 880.881 336.199 879.43 346.071C877.979 355.943 882.3 364.753 889.08 365.749C895.86 366.746 902.533 359.551 903.983 349.679C905.434 339.807 901.114 330.997 894.334 330.001Z" fill="black"/>
<path d="M885.471 311.808C883.662 302.725 887.254 294.355 893.492 293.113C899.731 291.871 906.254 298.227 908.062 307.31C909.87 316.393 906.279 324.763 900.04 326.005C893.802 327.247 887.279 320.891 885.471 311.808Z" fill="black"/>
<path fill-rule="evenodd" clip-rule="evenodd" d="M598.878 178.708L599.502 178.044C626.361 149.529 658.533 114.772 656.168 64.0226C655.282 44.9888 662.145 30.7197 672.882 20.5708C683.224 10.7955 696.598 5.34234 708.383 2.12829C716.144 0.0117661 723.883 0.091964 731.505 2.67391C738.96 5.19934 745.681 9.90473 751.932 16.0707C764.217 28.1881 776.309 47.613 789.852 73.5008C799.55 92.0374 810.32 109.616 831.646 129.22C847.514 143.808 869.431 159.7 901.439 177.822C904.453 179.421 907.425 181.075 910.353 182.783C919.393 187.73 929.178 192.842 939.784 198.137C1053.99 255.147 1072.17 359.73 1085.45 451.1C1090.96 489.006 1076.03 554.16 1029.26 610.953C982.025 668.307 902.391 717.17 778.382 722.44C663.946 727.302 578.565 696.867 520.37 648.026C462.236 599.236 432.025 532.724 426.845 466.959C424.725 440.043 426.041 412.575 435.324 382.153C444.581 351.813 461.6 319.063 490.215 281.292C506.56 259.716 521.464 247.339 538.252 233.775C539.041 233.137 539.835 232.497 540.634 231.852C556.65 218.926 574.785 204.291 598.877 178.708L598.878 178.708ZM868.036 170.114C883.036 179.806 900.785 190.054 921.976 201.031C911.625 211.183 901.612 222.796 892.052 235.737C869.404 219.044 840.819 207.604 808.871 204.133C725.046 195.025 649.813 244.218 640.833 314.008C631.853 383.799 692.527 447.759 776.352 456.867C785.797 457.894 795.133 458.18 804.277 457.78C798.171 492.971 794.974 527.769 794.442 561.333C783.45 561.515 772.288 560.963 761.019 559.631C729.624 555.919 700.439 546.507 674.597 532.695C671.43 522.178 667.984 511.561 664.254 500.868C638.833 427.994 604.019 362.378 565.597 310.369C589.221 210.037 693.474 141.942 808.795 155.578C829.626 158.041 849.483 163.012 868.036 170.114ZM848.83 156.939C840.847 151.098 833.839 145.448 827.631 139.944C828.767 142.612 828.879 144.934 827.721 146.494C824.784 150.45 814.792 148.007 805.403 141.036C796.014 134.066 790.784 125.208 793.721 121.252C796.105 118.041 803.137 119.047 810.723 123.267C804.288 116.144 798.99 109.206 794.386 102.34C793.672 102.903 792.736 103.548 792.119 103.853C784.786 107.473 774.227 101.059 768.534 89.5274C762.841 77.9958 764.17 65.7131 771.502 62.0932L771.535 62.0764C749.081 22.4277 731.964 6.73672 711.185 12.4037C689.203 18.399 665.329 31.7869 666.808 63.527C668.458 98.9456 654.71 127.132 637.672 150.189C645.942 147.63 652.919 148.165 655.952 152.309C661.008 159.215 653.195 173.531 638.503 184.286C623.811 195.04 607.803 198.16 602.748 191.254C602.585 191.03 602.435 190.8 602.298 190.561C596.768 196.307 591.549 201.486 586.596 206.212C594.827 202.041 602.503 201.47 605.333 205.335C606.992 207.602 606.693 210.996 604.859 214.743C655.028 166.235 729.529 139.745 808.889 149.129C822.621 150.753 835.962 153.387 848.83 156.939ZM591.152 229.249C581.284 235.819 571.038 237.509 567.668 232.905C565.859 230.434 566.378 226.623 568.676 222.474C564.478 226.099 560.478 229.434 556.637 232.583C558.217 232.428 559.607 232.727 560.695 233.539C564.995 236.75 562.943 246.769 556.111 255.916C549.28 265.063 540.256 269.876 535.957 266.665C532.132 263.808 533.333 255.565 538.454 247.34C533.294 251.58 528.345 255.785 523.473 260.307C533.461 270.608 543.354 281.887 553.063 294.045C561.686 270.161 574.693 248.341 591.152 229.249ZM509.057 275.049C505.65 278.906 502.214 283.091 498.704 287.724C455.249 345.085 439.922 389.509 437.115 430.707C498.369 475.606 561.414 545.776 611.772 630.623C625.596 653.915 637.747 677.104 648.2 699.865C658.173 702.383 668.519 704.547 679.242 706.331C681.267 662.065 675.115 609.813 660.226 553.894C581.011 509.772 532.095 426.915 542.532 338.652C543.386 331.427 544.619 324.33 546.21 317.374C534.096 301.722 521.644 287.539 509.057 275.049ZM701.956 709.468C725.589 712.088 750.9 712.947 777.93 711.799C789.445 711.309 800.56 710.437 811.284 709.211C801.421 672.387 795.65 630.938 794.554 586.884C782.323 587.14 769.893 586.553 757.342 585.069C731.16 581.973 706.402 575.204 683.634 565.407C696.759 617.664 702.733 666.716 701.956 709.468ZM834.343 705.941C838.009 705.317 841.625 704.649 845.192 703.94C848.356 662.895 857.853 618.321 873.518 572.884C855.476 579.122 836.42 583.405 816.697 585.488C817.835 629.185 823.938 670.104 834.343 705.941ZM868.741 698.479C872.403 655.807 883.369 608.774 901.384 561.315C967.362 529.058 1015.03 468.898 1023.7 395.546C1024.99 384.612 1025.37 373.76 1024.9 363.055C1033.19 354.483 1041.59 346.462 1050.04 339.02C1063.15 375.712 1069.41 414.808 1074.91 452.632C1075.51 456.778 1075.84 461.328 1075.88 466.218C1062 476.984 1048.21 488.609 1034.61 501.07C970.678 559.654 921.593 626.987 891.792 691.49C884.375 694.025 876.694 696.361 868.741 698.479ZM923.211 678.9C1018.29 634.769 1061.3 555.808 1072.68 497.846C1064.01 504.95 1055.39 512.417 1046.86 520.239C993.467 569.16 951.25 624.663 923.211 678.9ZM1040.11 314.716C1033.76 320.334 1027.44 326.253 1021.18 332.465C1013.02 291.784 992.505 254.303 962.967 223.855C974.289 231.446 984.372 239.632 993.374 248.318C992.2 255.391 996.855 268.517 1005.73 281.59C1016.22 297.026 1028.94 307.015 1035.53 305.396C1035.33 304.998 1035.12 304.601 1034.91 304.204C1036.73 307.673 1038.46 311.179 1040.11 314.716ZM622.75 692.419C613.996 674.067 604.066 655.447 592.972 636.756C547.87 560.765 491.788 497.476 436.834 455.749C436.978 459.214 437.191 462.67 437.463 466.123C444.744 558.572 503.553 652.522 622.75 692.419ZM644.611 503.145C622.847 440.754 593.654 384.103 561.26 337.83C555.4 408.778 590.665 475.3 649.298 517.03C647.793 512.418 646.231 507.789 644.611 503.145ZM916.355 525.388C966.031 493.767 1000.85 443.566 1007.89 383.971C1008 383.061 1008.1 382.152 1008.2 381.244C985.422 407.327 963.722 437.599 944.126 471.464C933.858 489.21 924.596 507.258 916.355 525.388ZM885.088 541.964C896.588 513.478 910.472 484.891 926.699 456.847C951.436 414.098 979.28 376.655 1008.45 345.549C1004.11 296.993 980.818 252.139 944.715 218.041C933.299 227.912 922.257 239.683 911.761 253.154C936.072 278.958 948.86 312.253 944.39 346.992C937.296 402.125 888.856 444.404 827.496 455.241C827.3 456.271 827.107 457.303 826.916 458.338C820.536 492.865 817.184 527.046 816.596 559.959C840.763 557.35 863.841 551.175 885.088 541.964ZM889.196 239.661C867.714 222.835 839.991 211.259 808.812 207.872C731.119 199.43 661.388 245.024 653.065 309.71C644.742 374.396 700.978 433.678 778.671 442.12C788.284 443.164 797.774 443.381 807.041 442.838C823.161 360.806 852.739 290.501 889.196 239.661ZM830.644 439.737C885.337 428.448 928.021 390.005 934.419 340.281C938.307 310.064 928.107 281.027 908.213 257.8C874.428 302.931 846.622 365.87 830.644 439.737Z" fill="black"/>
</svg>
